<svg width="558" height="460" viewBox="0 0 558 460" fill="none" xmlns="http://www.w3.org/2000/svg">
<mask id="mask0_1161_1080" style="mask-type:alpha" maskUnits="userSpaceOnUse" x="0" y="0" width="558" height="460">
<rect width="558" height="460" fill="#C4C4C4"/>
</mask>
<g mask="url(#mask0_1161_1080)">
<g filter="url(#filter0_f_1161_1080)">
<path d="M444.001 224.451C407.318 325.179 279.636 414.027 279.636 414.027C279.636 414.027 151.954 325.179 115.27 224.451C119.675 234.96 191.579 243.317 279.636 243.317C367.692 243.317 439.596 234.96 444.001 224.451Z" fill="#EE614C"/>
</g>
<g filter="url(#filter1_f_1161_1080)">
<path d="M278.627 118.304C219.731 28.8615 104.178 77.6308 104.178 173.649C104.178 190.706 107.742 207.796 113.855 224.558C113.883 224.645 113.915 224.727 113.947 224.809C118.36 235.282 190.402 243.611 278.627 243.611C366.853 243.611 438.894 235.282 443.308 224.809C443.34 224.727 443.372 224.645 443.399 224.558C449.513 207.796 453.077 190.706 453.077 173.649C453.077 77.6308 337.523 28.8615 278.627 118.304Z" fill="#EE614C"/>
</g>
<path d="M278.671 119.172C220.956 31.4077 107.719 79.2622 107.719 173.479C107.719 190.217 111.211 206.986 117.202 223.434C117.229 223.518 117.26 223.599 117.292 223.679C121.617 233.956 192.214 242.129 278.671 242.129C365.128 242.129 435.725 233.956 440.05 223.679C440.081 223.599 440.113 223.518 440.14 223.434C446.131 206.986 449.623 190.217 449.623 173.479C449.623 79.2622 336.386 31.4077 278.671 119.172Z" fill="#EE614C"/>
<path opacity="0.5" d="M426.39 179.914C426.262 184.761 425.781 189.738 424.962 194.815" stroke="#F5F5F5" stroke-width="12" stroke-miterlimit="10" stroke-linecap="round"/>
<path opacity="0.5" d="M408.184 117.023C418.516 129.531 424.628 145.426 425.619 162.766" stroke="#F5F5F5" stroke-width="12" stroke-miterlimit="10" stroke-linecap="round"/>
<path opacity="0.5" d="M211.863 98.0413C227.694 102.286 241.239 111.664 251.65 125.298" stroke="#F5F5F5" stroke-width="12" stroke-miterlimit="10" stroke-linecap="round"/>
<path d="M440.256 222.683C440.256 222.933 440.216 223.183 440.14 223.434C440.113 223.518 440.082 223.599 440.05 223.679C435.725 233.956 365.128 242.129 278.671 242.129C192.214 242.129 121.617 233.956 117.292 223.679C117.26 223.599 117.229 223.518 117.202 223.434C117.126 223.183 117.086 222.933 117.086 222.683C117.086 211.946 189.429 203.237 278.671 203.237C367.913 203.237 440.256 211.946 440.256 222.683Z" fill="#CD4F3B"/>
<path d="M278.671 119.172C220.956 31.4077 107.719 79.2622 107.719 173.479C107.719 190.217 111.211 206.986 117.202 223.434C117.229 223.518 117.26 223.599 117.292 223.679C121.617 233.956 192.214 242.129 278.671 242.129C365.128 242.129 435.725 233.956 440.05 223.679C440.081 223.599 440.113 223.518 440.14 223.434C446.131 206.986 449.623 190.217 449.623 173.479C449.623 79.2622 336.386 31.4077 278.671 119.172Z" stroke="white" stroke-width="4" stroke-miterlimit="10"/>
<path d="M440.256 222.683C440.256 222.933 440.216 223.183 440.14 223.434C440.113 223.518 440.082 223.599 440.05 223.679C435.725 233.956 365.128 242.129 278.671 242.129C192.214 242.129 121.617 233.956 117.292 223.679C117.26 223.599 117.229 223.518 117.202 223.434C117.126 223.183 117.086 222.933 117.086 222.683C117.086 211.946 189.429 203.237 278.671 203.237C367.913 203.237 440.256 211.946 440.256 222.683Z" stroke="white" stroke-width="4" stroke-miterlimit="10"/>
<path d="M219.533 249.82L219.495 249.617C212.542 251.037 205.181 247.885 201.557 241.351C197.085 233.288 199.997 223.124 208.06 218.652C209.712 217.736 211.451 217.13 213.214 216.815L210.186 216.612C207.401 215.152 204.998 212.889 203.359 209.933C198.886 201.87 201.798 191.706 209.861 187.234C214.062 184.904 218.874 184.453 223.073 185.938C226.545 187.169 231.552 189.325 236.228 193.137C241.466 197.406 244.219 198.749 248.509 199.239C251.512 199.583 253.14 199.827 254.579 199.317C256.317 198.7 258.146 197.651 258.481 196.004C258.837 194.266 258.483 193.42 256.972 192.249C255.835 191.368 251.23 190.49 249.468 189.636C247.846 188.849 246.722 187.222 245.789 185.538C242.495 179.6 244.639 172.114 250.578 168.82C253.547 167.173 256.903 166.885 259.929 167.752L260.007 167.924C260.018 165.429 260.639 162.942 261.905 160.79C265.319 154.982 272.81 152.067 279.365 153.62C282.139 154.28 284.771 155.77 286.728 157.83L285.801 156.034C285.804 151.492 288.206 147.089 292.459 144.73C298.701 141.268 306.569 143.522 310.03 149.764C311.132 151.75 311.164 154.286 311.159 156.413C311.142 156.419 311.128 156.424 311.111 156.431L311.159 156.455C319.025 153.614 327.747 153.451 335.776 155.747C336.352 155.91 336.921 156.088 337.485 156.277C337.678 156.34 337.868 156.404 338.055 156.472C339.931 157.128 341.76 157.921 343.519 158.851C353.103 163.915 360.524 172.819 364.075 183.061L364.084 183.062C368.085 180.843 373.124 182.286 375.343 186.287C377.562 190.288 376.119 195.327 372.118 197.546C371.703 197.776 371.277 197.966 370.845 198.117C373.472 199.295 374.901 202.253 374.087 205.101C373.192 208.223 369.938 210.028 366.816 209.133C365.84 208.854 364.991 208.343 364.316 207.679L364.778 208.361C361.842 219.454 354.567 229.378 343.743 235.381C337.462 238.865 330.693 240.636 323.975 240.849L322.021 238.863C322.315 239.248 322.583 239.659 322.825 240.095C325.581 245.064 323.787 251.328 318.818 254.084C314.299 256.59 308.717 255.336 305.664 251.353C305.201 254.394 303.381 257.193 300.485 258.8C295.516 261.556 289.252 259.761 286.496 254.793C285.672 255.843 283.157 257.879 281.915 258.568C276.946 261.324 270.466 259.643 267.926 254.56C264.636 247.977 270.321 243.211 270.613 240.644C270.858 238.499 270.689 237.158 268.837 235.89C268.183 235.44 266.258 235.156 264.598 235.537C262.936 235.92 261.357 236.781 260.183 238.018C254.255 244.264 251.935 250.43 250.308 261.534C249.728 265.486 247.353 269.105 243.898 271.678C236.5 277.182 226.041 275.648 220.537 268.249C216.407 262.702 216.237 255.433 219.533 249.82Z" fill="#F2B458"/>
<path d="M213.426 216.857L221.484 217.398C218.911 216.573 216.143 216.369 213.426 216.857Z" fill="url(#paint0_linear_1161_1080)"/>
<path d="M285.714 252.318L286.69 244.883C285.46 247.121 285.085 249.777 285.714 252.318Z" fill="url(#paint1_linear_1161_1080)"/>
<path d="M304.705 244.853L305.875 251.393L305.876 251.395C306.211 249.22 305.854 246.925 304.705 244.853Z" fill="url(#paint2_linear_1161_1080)"/>
<path d="M320.389 237.026L322.233 238.904C321.693 238.188 321.071 237.563 320.389 237.026Z" fill="url(#paint3_linear_1161_1080)"/>
<path d="M286.94 157.871L290.112 164.018C289.723 161.682 288.564 159.582 286.94 157.871Z" fill="url(#paint4_linear_1161_1080)"/>
<path d="M311.319 156.474L311.372 156.501C311.373 156.485 311.373 156.469 311.371 156.454C311.353 156.461 311.337 156.467 311.319 156.474Z" fill="url(#paint5_linear_1161_1080)"/>
<path d="M311.371 156.455C311.372 156.469 311.372 156.483 311.371 156.498C319.237 153.656 327.96 153.493 335.989 155.79C327.963 153.489 319.227 153.627 311.371 156.455Z" fill="url(#paint6_linear_1161_1080)"/>
<path d="M363.219 205.783C363.519 206.506 363.965 207.165 364.528 207.719L363.219 205.783Z" fill="url(#paint7_linear_1161_1080)"/>
<path d="M337.698 156.318C337.89 156.381 338.08 156.444 338.267 156.513C338.08 156.444 337.89 156.381 337.698 156.318Z" fill="url(#paint8_linear_1161_1080)"/>
<path d="M371.057 198.159L365.16 198.003C367 198.759 369.1 198.851 371.057 198.159Z" fill="url(#paint9_linear_1161_1080)"/>
<path d="M361.202 186.095L364.296 183.103C362.971 183.838 361.926 184.882 361.202 186.095Z" fill="url(#paint10_linear_1161_1080)"/>
<path d="M290.111 164.018C289.723 161.682 288.563 159.582 286.94 157.871C284.983 155.811 282.351 154.321 279.577 153.661C273.022 152.108 265.531 155.023 262.117 160.831C260.851 162.983 260.231 165.47 260.219 167.965C260.196 172.202 261.928 176.453 265.245 179.096" stroke="white" stroke-width="4" stroke-miterlimit="10" stroke-linecap="round"/>
<path d="M286.134 156.829C285.77 151.609 288.418 147.129 292.672 144.77C298.913 141.308 306.781 143.562 310.243 149.804C311.344 151.79 311.376 154.326 311.371 156.453C311.373 156.466 311.372 156.481 311.372 156.496C319.237 153.654 327.96 153.491 335.989 155.787C336.564 155.95 337.133 156.128 337.698 156.318C337.89 156.38 338.08 156.444 338.268 156.512C340.143 157.168 341.973 157.961 343.731 158.891C353.315 163.955 360.736 172.86 364.287 183.101" stroke="white" stroke-width="4" stroke-miterlimit="10" stroke-linecap="round"/>
<path d="M221.483 217.398C218.91 216.572 216.143 216.368 213.426 216.856C211.663 217.171 209.925 217.777 208.272 218.693C200.209 223.165 197.297 233.329 201.769 241.392C205.393 247.926 212.754 251.077 219.707 249.658C221.334 249.326 222.939 248.743 224.469 247.895C228.237 245.805 230.878 242.475 232.171 238.695" stroke="white" stroke-width="4" stroke-miterlimit="10" stroke-linecap="round"/>
<path d="M304.18 167.503C302.781 176.389 302.773 185.502 304.226 194.49C305.879 204.74 309.433 214.827 314.981 224.225C315.946 225.86 316.973 227.474 318.06 229.066" stroke="white" stroke-width="4" stroke-miterlimit="10" stroke-linecap="round"/>
<path d="M311.2 183.773C311.114 188.402 311.674 193.236 312.888 198.095C314.271 203.636 316.506 209.208 319.602 214.537" stroke="white" stroke-width="4" stroke-miterlimit="10" stroke-linecap="round"/>
<path d="M324.188 240.89C330.905 240.677 337.674 238.906 343.955 235.422C354.779 229.418 362.054 219.495 364.99 208.402" stroke="white" stroke-width="4" stroke-miterlimit="10" stroke-linecap="round"/>
<path d="M346.903 190.974C344.202 192.472 340.798 191.497 339.299 188.795C337.801 186.094 338.776 182.69 341.478 181.191C344.179 179.693 347.583 180.668 349.082 183.37C350.58 186.071 349.605 189.475 346.903 190.974Z" stroke="white" stroke-width="4" stroke-miterlimit="10" stroke-linecap="round"/>
<path d="M365.16 198.002C366.999 198.758 369.099 198.85 371.057 198.157C371.49 198.006 371.915 197.816 372.33 197.586C376.331 195.367 377.774 190.328 375.555 186.327C373.336 182.326 368.297 180.883 364.296 183.102C362.971 183.837 361.926 184.881 361.201 186.095" stroke="white" stroke-width="4" stroke-miterlimit="10" stroke-linecap="round"/>
<path d="M363.219 205.783C363.519 206.506 363.965 207.165 364.528 207.719C365.204 208.384 366.052 208.894 367.028 209.174C370.15 210.068 373.405 208.263 374.299 205.141C375.113 202.294 373.684 199.335 371.057 198.158" stroke="white" stroke-width="4" stroke-miterlimit="10" stroke-linecap="round"/>
<path d="M305.875 251.391L305.876 251.394C308.929 255.377 314.512 256.631 319.031 254.125C323.999 251.369 325.794 245.105 323.038 240.136C322.796 239.699 322.528 239.288 322.234 238.903C321.693 238.187 321.071 237.562 320.388 237.025" stroke="white" stroke-width="4" stroke-miterlimit="10" stroke-linecap="round"/>
<path d="M286.691 244.883C285.461 247.12 285.086 249.776 285.714 252.317C285.93 253.176 286.258 254.021 286.708 254.834C289.464 259.802 295.728 261.597 300.697 258.841C303.594 257.234 305.413 254.434 305.876 251.394C306.211 249.219 305.853 246.924 304.704 244.852" stroke="white" stroke-width="4" stroke-miterlimit="10" stroke-linecap="round"/>
<path d="M302.971 236.051C303.084 235.991 303.197 235.931 303.309 235.869" stroke="white" stroke-width="4" stroke-miterlimit="10" stroke-linecap="round"/>
<path d="M288.58 209.314C287.038 210.17 285.702 211.255 284.595 212.503C280.431 217.186 279.456 224.166 282.667 229.956C286.671 237.174 295.689 239.851 302.964 236.054" stroke="white" stroke-width="4" stroke-miterlimit="10" stroke-linecap="round"/>
<path d="M301.102 236.806C301.746 236.564 302.365 236.315 302.964 236.055C302.966 236.053 302.968 236.052 302.971 236.051C308.35 233.716 312.043 230.506 314.834 224.311" stroke="white" stroke-width="4" stroke-miterlimit="10" stroke-linecap="round"/>
<path d="M304.227 194.492C300.792 191.869 296.747 190.149 292.959 189.914C290.479 189.76 287.863 190.258 285.558 191.189C282.323 192.496 279.448 194.882 277.492 197.772C275.539 200.661 274.814 204.507 276.159 207.724C277.505 210.943 281.149 213.212 284.556 212.468" stroke="white" stroke-width="4" stroke-miterlimit="10" stroke-linecap="round"/>
<path d="M308.179 210.035C308.065 209.763 307.73 209.671 307.439 209.622C303.351 208.957 299.212 210.59 295.726 212.827" stroke="white" stroke-width="4" stroke-miterlimit="10" stroke-linecap="round"/>
<path d="M311.379 217.627C310.849 218.719 309.992 219.622 309.063 220.404C306.251 222.77 302.629 224.156 298.955 224.268" stroke="white" stroke-width="4" stroke-miterlimit="10" stroke-linecap="round"/>
<path d="M257.279 207.761C256.374 209.704 256.44 211.954 256.713 214.081C257.284 218.537 258.696 222.882 260.84 226.827C261.356 227.777 261.916 228.704 262.516 229.605" stroke="white" stroke-width="4" stroke-miterlimit="10" stroke-linecap="round"/>
<path d="M256.167 211.244C251.096 211.902 245.957 210.771 241.078 209.248" stroke="white" stroke-width="4" stroke-miterlimit="10" stroke-linecap="round"/>
<path d="M257.427 218.856C252.328 220.906 246.998 222.373 241.567 223.219" stroke="white" stroke-width="4" stroke-miterlimit="10" stroke-linecap="round"/>
<path d="M260.84 226.827C255.309 227.576 250.225 231.096 247.584 236.01" stroke="white" stroke-width="4" stroke-miterlimit="10" stroke-linecap="round"/>
<path d="M260.141 167.792C257.115 166.925 253.76 167.214 250.79 168.861C244.852 172.155 242.707 179.64 246.001 185.579C246.935 187.262 248.058 188.889 249.68 189.677C251.442 190.531 256.047 191.409 257.185 192.29C258.695 193.461 259.049 194.306 258.693 196.045C258.358 197.691 256.529 198.74 254.791 199.357C253.352 199.868 251.724 199.623 248.721 199.28C244.432 198.789 241.678 197.447 236.441 193.177C231.764 189.366 226.757 187.21 223.285 185.979C219.086 184.494 214.274 184.945 210.073 187.274C202.01 191.746 199.099 201.91 203.571 209.973C205.21 212.93 208.771 215.828 211.555 217.288" stroke="white" stroke-width="4" stroke-miterlimit="10" stroke-linecap="round"/>
<path d="M219.745 249.861C216.45 255.474 216.619 262.744 220.749 268.291C226.253 275.69 236.712 277.224 244.111 271.72C247.565 269.147 249.94 265.528 250.52 261.576C252.147 250.471 254.467 244.306 260.395 238.059C261.569 236.823 263.148 235.961 264.81 235.579C267.138 235.25 271.6 235.81 270.825 240.686C270.533 243.253 264.848 248.018 268.138 254.602C270.679 259.684 277.158 261.365 282.127 258.609C283.369 257.92 284.526 257.09 286.533 254.804" stroke="white" stroke-width="4" stroke-miterlimit="10" stroke-linecap="round"/>
<path d="M209.182 206.839C206.655 202.283 208.3 196.541 212.856 194.014" stroke="white" stroke-width="4" stroke-linecap="round"/>
<path d="M212.596 224.642C207.515 225.91 204.424 231.057 205.692 236.139C206.96 241.22 212.108 244.312 217.189 243.043" stroke="white" stroke-width="4" stroke-linecap="round"/>
<path d="M224.744 261.367C226.012 266.448 231.16 269.539 236.242 268.271C241.323 267.003 244.414 261.855 243.146 256.774" stroke="white" stroke-width="4" stroke-linecap="round"/>
<path d="M281.866 163.829C279.718 159.957 274.838 158.559 270.966 160.707C267.093 162.854 265.695 167.735 267.843 171.607" stroke="white" stroke-width="4" stroke-linecap="round"/>
<path d="M439.246 222.829C403.229 321.335 277.867 408.224 277.867 408.224C277.867 408.224 152.505 321.335 116.488 222.829C120.813 233.106 191.411 241.278 277.867 241.278C364.324 241.278 434.921 233.106 439.246 222.829Z" fill="#EE614C"/>
<path opacity="0.5" d="M439.246 222.829C403.229 321.335 277.867 408.224 277.867 408.224C277.867 408.224 152.505 321.335 116.488 222.829C120.813 233.106 191.411 241.278 277.867 241.278C364.324 241.278 434.921 233.106 439.246 222.829Z" fill="#EE614C"/>
<path opacity="0.5" d="M172.061 251.372C166.648 250.75 161.59 250.088 156.899 249.389C153.438 248.873 150.916 252.596 152.688 255.609C156.682 262.4 161.118 269.28 165.981 276.229" stroke="#F5F5F5" stroke-width="12" stroke-miterlimit="10" stroke-linecap="round" stroke-linejoin="round"/>
<path d="M440.05 223.68C404.033 322.186 278.671 409.075 278.671 409.075C278.671 409.075 153.309 322.186 117.292 223.68C121.617 233.957 192.214 242.129 278.671 242.129C365.128 242.129 435.725 233.957 440.05 223.68Z" stroke="white" stroke-width="4" stroke-miterlimit="10"/>
<path d="M267.107 313.372C264.124 310.887 256.547 305.554 253.021 303.415C256.109 300.576 256.481 296.371 254.582 293.392C252.496 290.111 247.955 289.499 243.506 291.559C234.179 295.304 217.143 308.511 212.112 314.57C209.579 317.624 209.509 321.697 211.592 324.475C214.033 327.73 218.863 326.947 222.695 325.862C226.44 324.803 235.316 318.547 241.314 313.284C246.091 318.342 252.671 322.944 259.473 325.862C264.329 327.944 269.19 326.557 270.577 323.779C271.968 321.006 271.272 316.841 267.107 313.372Z" fill="#1C1C1C" stroke="#F3A2A9" stroke-width="4" stroke-linecap="round" stroke-linejoin="round"/>
<path d="M253.021 303.419C252.662 303.748 252.268 304.058 251.835 304.347L253.021 303.419Z" fill="#1C1C1C"/>
<path d="M253.021 303.419C252.662 303.748 252.268 304.058 251.835 304.347" stroke="#F3A2A9" stroke-width="4" stroke-linecap="round" stroke-linejoin="round"/>
<path d="M244.21 310.598C243.37 311.438 242.39 312.348 241.318 313.288L244.21 310.598Z" fill="#1C1C1C"/>
<path d="M244.21 310.598C243.37 311.438 242.39 312.348 241.318 313.288" stroke="#F3A2A9" stroke-width="4" stroke-linecap="round" stroke-linejoin="round"/>
<path d="M280.638 332.171C280.638 335.167 278.495 338.339 272.164 338.838C261.171 339.669 225.451 339.918 211.793 338.838C205.462 338.339 203.555 335.167 203.555 332.171C203.555 329.091 205.467 325.184 211.793 324.681C224.615 323.684 261.171 323.85 272.164 324.681C278.49 325.18 280.638 329.091 280.638 332.171Z" fill="#1C1C1C" stroke="#F3A2A9" stroke-width="4" stroke-linecap="round" stroke-linejoin="round"/>
<path d="M234.861 327.056C233.85 325.709 233.251 324.037 233.251 322.226C233.251 317.782 236.856 314.177 241.301 314.177C245.745 314.177 249.35 317.782 249.35 322.226C249.35 324.037 248.751 325.713 247.74 327.056" fill="#1C1C1C"/>
<path d="M234.861 327.056C233.85 325.709 233.251 324.037 233.251 322.226C233.251 317.782 236.856 314.177 241.301 314.177C245.745 314.177 249.35 317.782 249.35 322.226C249.35 324.037 248.751 325.713 247.74 327.056" stroke="#F3A2A9" stroke-width="4" stroke-linecap="round" stroke-linejoin="round"/>
<path d="M273.022 352.084C272.357 347.919 269.417 344.463 264.168 343.33C253.568 341.037 225.639 341.89 218.902 343.282C212.72 344.559 210.817 348.002 210.817 351.585C210.817 354.914 213.805 357.889 219.886 358.724C227.406 359.788 243.217 360.133 253.515 358.646C252.824 361.419 252.824 364.407 253.515 366.485C254.421 369.198 257.68 372.037 263.192 371.735C267.387 371.508 271.08 368.716 272.252 365.79C273.639 362.321 273.687 356.415 273.022 352.084Z" fill="#1C1C1C" stroke="#F3A2A9" stroke-width="4" stroke-linecap="round" stroke-linejoin="round"/>
<path d="M256.293 358.16C255.44 358.344 254.508 358.506 253.515 358.65L256.293 358.16Z" fill="#1C1C1C"/>
<path d="M256.293 358.16C255.44 358.344 254.508 358.506 253.515 358.65" stroke="#F3A2A9" stroke-width="4" stroke-linecap="round" stroke-linejoin="round"/>
<path d="M198.778 313.156C195.821 310.693 188.695 305.036 185.212 302.915C187.912 300.115 188.17 296.186 186.372 293.365C184.302 290.114 179.805 289.506 175.4 291.549C166.16 295.259 149.282 308.339 144.304 314.342C141.793 317.364 141.723 321.402 143.788 324.15C146.207 327.374 150.993 326.595 154.786 325.523C158.43 324.491 166.978 318.498 172.911 313.344C177.653 318.362 184.46 322.627 191.219 325.523C196.031 327.584 200.843 326.21 202.217 323.463C203.586 320.72 202.9 316.595 198.778 313.156Z" fill="#1C1C1C" stroke="#F3A2A9" stroke-width="4" stroke-linecap="round" stroke-linejoin="round"/>
<path d="M200.813 361.322C204.251 357.197 203.753 349.725 203.446 346.487C202.952 341.29 199.815 338.486 190.825 337.742C181.258 336.915 163.273 336.998 153.46 337.992C146.697 338.652 143.481 341.456 142.571 346.404C141.911 349.952 141.911 359.546 142.571 363.094C143.726 369.114 147.852 371.095 154.038 371.918C162.205 372.99 184.972 372.99 192.973 372.167C200.314 371.424 203.354 370.255 203.595 366.086C203.774 362.827 200.813 361.322 200.813 361.322ZM160.521 358.461C161.991 356.584 162.026 354.056 160.631 351.711C168.028 353.006 177.29 353.006 184.036 351.706C182.806 354.064 182.846 356.606 184.149 358.487C177.355 357.175 165.447 357.166 160.521 358.461Z" fill="#1C1C1C" stroke="#F3A2A9" stroke-width="4" stroke-linecap="round" stroke-linejoin="round"/>
<path d="M158.907 349.589C162.573 353.028 162.573 357.608 158.907 359.901V349.589Z" fill="#1C1C1C"/>
<path d="M158.907 349.589C162.573 353.028 162.573 357.608 158.907 359.901" stroke="#F3A2A9" stroke-width="4" stroke-linecap="round" stroke-linejoin="round"/>
<path d="M185.545 359.901C182.338 357.608 182.338 353.028 185.545 349.589V359.901Z" fill="#1C1C1C"/>
<path d="M185.545 359.901C182.338 357.608 182.338 353.028 185.545 349.589" stroke="#F3A2A9" stroke-width="4" stroke-linecap="round" stroke-linejoin="round"/>
<path d="M210.516 332.405C210.516 335.375 208.39 338.517 202.121 339.011C191.232 339.838 155.849 340.083 142.318 339.011C136.049 338.517 134.154 335.375 134.154 332.405C134.154 329.351 136.049 325.484 142.318 324.985C155.022 323.997 191.232 324.159 202.121 324.985C208.394 325.484 210.516 329.351 210.516 332.405Z" fill="#1C1C1C" stroke="#F3A2A9" stroke-width="4" stroke-linecap="round" stroke-linejoin="round"/>
<path d="M185.208 302.919C184.757 303.387 184.237 303.824 183.646 304.218L185.208 302.919Z" fill="#1C1C1C"/>
<path d="M185.208 302.919C184.757 303.387 184.237 303.824 183.646 304.218" stroke="#F3A2A9" stroke-width="4" stroke-linecap="round" stroke-linejoin="round"/>
<path d="M176.091 310.408C175.172 311.327 174.091 312.32 172.906 313.352L176.091 310.408Z" fill="#1C1C1C"/>
<path d="M176.091 310.408C175.172 311.327 174.091 312.32 172.906 313.352" stroke="#F3A2A9" stroke-width="4" stroke-linecap="round" stroke-linejoin="round"/>
<path d="M97.3466 301.837C88.5183 300.765 81.838 300.765 74.414 301.588C68.3112 302.248 65.0914 305.879 65.2577 310.827C65.4239 315.692 69.0549 317.805 74.0859 318.133C78.2157 318.426 84.1041 318.623 88.6189 318.251H88.6058C88.6058 318.251 75.5646 341.63 67.725 350.17C64.0152 354.212 63.1053 359.077 67.0644 362.708C70.6955 366.089 76.2208 365.923 80.3462 362.791C91.235 354.544 100.886 337.548 105.422 326.248C108.227 319.319 108.393 315.526 107.815 311.072C107.159 305.963 103.283 302.581 97.3466 301.837Z" fill="#1C1C1C" stroke="#F3A2A9" stroke-width="4" stroke-linecap="round" stroke-linejoin="round"/>
<path d="M93.3351 317.446C92.1539 317.84 90.5046 318.098 88.6103 318.251L93.3351 317.446Z" fill="#1C1C1C"/>
<path d="M93.3351 317.446C92.1539 317.84 90.5046 318.098 88.6103 318.251" stroke="#F3A2A9" stroke-width="4" stroke-linecap="round" stroke-linejoin="round"/>
<path d="M132.402 320.898C132.318 313.885 132.152 307.616 131.824 303.495C131.33 296.977 127.371 294.339 122.751 294.339C118.214 294.339 114.5 296.815 113.594 303.246C112.409 311.558 112.033 329.293 112.501 343.874C112.711 351.78 113.131 358.924 113.756 363.482C114.583 369.423 116.81 372.883 122.335 373.05C127.944 373.216 131.325 369.751 131.82 362.988C132.148 358.368 132.432 349.321 132.515 341.569L132.402 320.898Z" fill="#1C1C1C" stroke="#F3A2A9" stroke-width="4" stroke-linecap="round" stroke-linejoin="round"/>
<path d="M130.013 323.488C131.562 322.324 133.491 321.633 135.578 321.633C140.696 321.633 144.848 325.784 144.848 330.903C144.848 336.021 140.696 340.173 135.578 340.173C133.491 340.173 131.566 339.482 130.013 338.318" fill="#1C1C1C"/>
<path d="M130.013 323.488C131.562 322.324 133.491 321.633 135.578 321.633C140.696 321.633 144.848 325.784 144.848 330.903C144.848 336.021 140.696 340.173 135.578 340.173C133.491 340.173 131.566 339.482 130.013 338.318" stroke="#F3A2A9" stroke-width="4" stroke-linecap="round"/>
<path d="M481.633 354.926C473.981 353.845 454.505 353.263 444.062 354.786C444.767 351.968 444.845 348.928 444.141 346.819C443.222 344.063 439.915 341.184 434.32 341.491C430.063 341.723 426.314 344.553 425.128 347.524C423.72 351.045 423.672 357.039 424.35 361.431C425.028 365.657 426.603 369.935 432.01 370.614C440.374 371.628 473.995 371.712 480.924 370.697C487.263 369.765 489.656 365.569 489.656 361.938C489.661 358.561 487.801 355.774 481.633 354.926Z" fill="#1C1C1C" stroke="#F3A2A9" stroke-width="4" stroke-linecap="round" stroke-linejoin="round"/>
<path d="M441.328 355.271C442.173 355.092 443.087 354.93 444.063 354.786L441.328 355.271Z" fill="#1C1C1C"/>
<path d="M441.328 355.271C442.173 355.092 443.087 354.93 444.063 354.786" stroke="#F3A2A9" stroke-width="4" stroke-linecap="round" stroke-linejoin="round"/>
<path d="M474.651 332.619C473.417 324.329 474.323 304.331 474.498 302.472C475.062 296.457 477.328 292.406 482.963 292.471C488.598 292.537 491.476 297.371 491.896 302.28C492.657 311.174 493.099 331.722 492.001 340.922C491.24 347.314 488.326 350.59 483.593 351.028C482.919 351.089 478.89 350.914 477.503 348.783" fill="#1C1C1C"/>
<path d="M474.651 332.619C473.417 324.329 474.323 304.331 474.498 302.472C475.062 296.457 477.328 292.406 482.963 292.471C488.598 292.537 491.476 297.371 491.896 302.28C492.657 311.174 493.099 331.722 492.001 340.922C491.24 347.314 488.326 350.59 483.593 351.028C482.919 351.089 478.89 350.914 477.503 348.783" stroke="#F3A2A9" stroke-width="4" stroke-linecap="round" stroke-linejoin="round"/>
<path d="M479.984 346.264C478.374 348.867 475.495 350.604 472.21 350.604C467.166 350.604 463.08 346.513 463.08 341.473C463.08 336.434 467.17 332.343 472.21 332.343C473.636 332.343 474.983 332.671 476.182 333.253" fill="#1C1C1C"/>
<path d="M479.984 346.264C478.374 348.867 475.495 350.604 472.21 350.604C467.166 350.604 463.08 346.513 463.08 341.473C463.08 336.434 467.17 332.343 472.21 332.343C473.636 332.343 474.983 332.671 476.182 333.253" stroke="#F3A2A9" stroke-width="4" stroke-linecap="round" stroke-linejoin="round"/>
<path d="M443.931 292.703C429.398 292.703 421.2 297.52 421.2 308.759C421.2 319.914 429.398 324.814 443.931 324.814C458.464 324.814 466.662 319.914 466.662 308.759C466.662 297.52 458.464 292.703 443.931 292.703ZM443.931 311.375C440.212 311.375 438.694 310.106 438.694 308.754C438.694 307.232 440.217 306.134 443.931 306.134C447.65 306.134 449.255 307.232 449.255 308.754C449.255 310.106 447.65 311.375 443.931 311.375Z" fill="#1C1C1C" stroke="#F3A2A9" stroke-width="4"/>
<path d="M444.439 339.037C442.111 339.01 428.086 338.669 426.485 338.56C421.169 338.131 418.251 335.712 418.238 331.573C418.221 327.601 420.749 325.322 426.135 324.609C432.574 323.756 456.657 323.913 462.721 324.985C467.905 325.899 470.197 327.478 470.21 331.788C470.228 335.589 467.061 338.157 461.811 338.656C459.864 338.879 447.208 339.072 444.439 339.037Z" fill="#1C1C1C" stroke="#F3A2A9" stroke-width="4"/>
<path d="M450.196 335.274C451.219 336.639 451.827 338.336 451.827 340.174C451.827 344.684 448.297 347.051 443.787 347.051C439.276 347.051 435.488 344.684 435.488 340.174C435.488 338.336 436.096 336.639 437.119 335.274" fill="#1C1C1C"/>
<path d="M450.196 335.274C451.219 336.639 451.827 338.336 451.827 340.174C451.827 344.684 448.297 347.051 443.787 347.051C439.276 347.051 435.488 344.684 435.488 340.174C435.488 338.336 436.096 336.639 437.119 335.274" stroke="#F3A2A9" stroke-width="4" stroke-linecap="round"/>
<path d="M404.833 301.506C405.664 293.972 409.986 292.38 414.632 292.38C419.366 292.38 423.758 294.83 424.183 301.506C424.773 310.378 424.773 328.883 424.183 338.092C423.758 344.514 420.044 348.145 414.466 348.145C408.805 348.145 406.15 344.588 404.916 338.341C404.352 335.471 404.562 303.938 404.833 301.506Z" fill="#1C1C1C" stroke="#F3A2A9" stroke-width="4" stroke-linecap="round" stroke-linejoin="round"/>
<path d="M408.201 326.341C407.195 326.721 406.106 326.931 404.969 326.931C399.955 326.931 395.891 322.867 395.891 317.854C395.891 312.84 399.955 308.776 404.969 308.776C406.11 308.776 407.2 308.986 408.206 309.371" fill="#1C1C1C"/>
<path d="M408.201 326.341C407.195 326.721 406.106 326.931 404.969 326.931C399.955 326.931 395.891 322.867 395.891 317.854C395.891 312.84 399.955 308.776 404.969 308.776C406.11 308.776 407.2 308.986 408.206 309.371" stroke="#F3A2A9" stroke-width="4" stroke-linecap="round" stroke-linejoin="round"/>
<path d="M418.281 355.534C410.629 354.454 393.34 353.872 382.898 355.394C383.602 352.577 383.681 349.536 382.976 347.428C382.058 344.672 378.75 341.793 373.155 342.099C368.898 342.331 365.149 345.162 363.964 348.132C362.555 351.654 362.507 357.647 363.185 362.04C363.863 366.266 365.438 370.544 370.845 371.222C379.21 372.237 410.642 372.32 417.572 371.305C423.911 370.373 426.304 366.178 426.304 362.547C426.309 359.17 424.449 356.383 418.281 355.534Z" fill="#1C1C1C" stroke="#F3A2A9" stroke-width="4" stroke-linecap="round" stroke-linejoin="round"/>
<path d="M380.164 355.879C381.008 355.7 381.922 355.538 382.898 355.394L380.164 355.879Z" fill="#1C1C1C"/>
<path d="M380.164 355.879C381.008 355.7 381.922 355.538 382.898 355.394" stroke="#F3A2A9" stroke-width="4" stroke-linecap="round" stroke-linejoin="round"/>
<path d="M395.2 328.791C392.684 326.779 389.119 325.129 385.75 324.093L384.748 323.799C384.748 323.799 389.959 318.252 391.236 316.332C395.405 310.054 394.579 302.363 386.157 300.578C383.318 299.974 379.521 299.581 373.12 299.55C366.816 299.524 360.298 300.408 360.298 300.408C354.808 301.252 352.441 303.194 352.441 307.508C352.441 312.154 354.808 314.013 359.961 315.028C361.825 315.4 365.946 315.811 370.233 315.448C364.598 319.683 355.761 327.75 353.031 331.845C350.918 334.973 351.54 338.656 353.709 340.887C356.671 343.932 362.105 342.882 364.778 341.732C366.703 340.905 370.561 337.978 373.96 335.021L374.074 335.134C376.891 338.656 381.778 340.896 385.405 342.178C389.924 343.775 395.445 342.733 397.308 339.361C398.813 336.644 398.861 331.722 395.2 328.791Z" fill="#1C1C1C" stroke="#F3A2A9" stroke-width="4" stroke-linecap="round" stroke-linejoin="round"/>
<path d="M374.844 314.709C373.352 315.081 371.782 315.317 370.237 315.448L374.844 314.709Z" fill="#1C1C1C"/>
<path d="M374.844 314.709C373.352 315.081 371.782 315.317 370.237 315.448" stroke="#F3A2A9" stroke-width="4" stroke-linecap="round" stroke-linejoin="round"/>
<path d="M381.887 323.16C382.968 323.34 384.136 323.611 385.339 323.965L381.887 323.16Z" fill="#1C1C1C"/>
<path d="M381.887 323.16C382.968 323.34 384.136 323.611 385.339 323.965" stroke="#F3A2A9" stroke-width="4" stroke-linecap="round" stroke-linejoin="round"/>
<path d="M377.661 331.608C376.638 332.632 375.347 333.818 373.965 335.016L377.661 331.608Z" fill="#1C1C1C"/>
<path d="M377.661 331.608C376.638 332.632 375.347 333.818 373.965 335.016" stroke="#F3A2A9" stroke-width="4" stroke-linecap="round" stroke-linejoin="round"/>
<path d="M365.534 302.175C364.515 300.941 363.911 299.406 363.911 297.748C363.911 293.671 367.542 290.368 372.022 290.368C376.502 290.368 380.133 293.671 380.133 297.748C380.133 299.41 379.529 300.941 378.51 302.175" fill="#1C1C1C"/>
<path d="M365.534 302.175C364.515 300.941 363.911 299.406 363.911 297.748C363.911 293.671 367.542 290.368 372.022 290.368C376.502 290.368 380.133 293.671 380.133 297.748C380.133 299.41 379.529 300.941 378.51 302.175" stroke="#F3A2A9" stroke-width="4" stroke-linecap="round" stroke-linejoin="round"/>
<path d="M318.012 350.582C317.517 346.57 313.912 344.12 310.513 343.665C310.028 343.595 309.529 343.556 309.026 343.56C303.387 343.626 298.863 348.25 298.929 353.889C298.951 355.976 299.729 357.827 300.696 359.515C304.948 366.939 317.176 372.211 330.449 372.062C345.459 371.891 355.691 362.792 357.393 349.41C358.719 338.98 353.775 331.154 348.062 326.858C350.814 324.583 354.278 320.33 354.558 313.239C355.07 300.29 344.562 291.96 330.3 291.4C317.692 290.901 306.366 295.578 302.127 302.521C301.226 303.999 300.486 305.636 300.412 307.495C300.215 312.535 304.135 316.778 309.17 316.975C309.621 316.993 310.063 316.962 310.5 316.923C313.549 316.599 316.165 314.766 317.565 312.163C322.334 307.753 326.595 307.67 329.985 307.967C334.251 308.344 337.812 311.905 337.698 314.805C337.571 318.064 335.856 320.037 333.17 320.746C329.683 320.112 326.967 320.042 326.074 320.072C322.911 320.19 320.055 321.433 318.248 323.8C318.182 323.887 318.117 323.97 318.051 324.058C317.001 325.541 316.349 327.339 316.27 329.303C316.06 334.605 320.111 339.072 325.317 339.278C325.335 339.278 325.352 339.278 325.374 339.278C325.842 339.295 326.297 339.269 326.752 339.216C331.328 339.164 338.656 342.375 338.293 347.69C338.044 351.308 335.104 354.344 330.606 354.616C327.028 354.834 322.089 354.598 317.211 349.821" fill="#1C1C1C"/>
<path d="M318.012 350.582C317.517 346.57 313.912 344.12 310.513 343.665C310.028 343.595 309.529 343.556 309.026 343.56C303.387 343.626 298.863 348.25 298.929 353.889C298.951 355.976 299.729 357.827 300.696 359.515C304.948 366.939 317.176 372.211 330.449 372.062C345.459 371.891 355.691 362.792 357.393 349.41C358.719 338.98 353.775 331.154 348.062 326.858C350.814 324.583 354.278 320.33 354.558 313.239C355.07 300.29 344.562 291.96 330.3 291.4C317.692 290.901 306.366 295.578 302.127 302.521C301.226 303.999 300.486 305.636 300.412 307.495C300.215 312.535 304.135 316.778 309.17 316.975C309.621 316.993 310.063 316.962 310.5 316.923C313.549 316.599 316.165 314.766 317.565 312.163C322.334 307.753 326.595 307.67 329.985 307.967C334.251 308.344 337.812 311.905 337.698 314.805C337.571 318.064 335.856 320.037 333.17 320.746C329.683 320.112 326.967 320.042 326.074 320.072C322.911 320.19 320.055 321.433 318.248 323.8C318.182 323.887 318.117 323.97 318.051 324.058C317.001 325.541 316.349 327.339 316.27 329.303C316.06 334.605 320.111 339.072 325.317 339.278C325.335 339.278 325.352 339.278 325.374 339.278C325.842 339.295 326.297 339.269 326.752 339.216C331.328 339.164 338.656 342.375 338.293 347.69C338.044 351.308 335.104 354.344 330.606 354.616C327.028 354.834 322.089 354.598 317.211 349.821" stroke="#F3A2A9" stroke-width="4" stroke-linecap="round" stroke-linejoin="round"/>
<path d="M326.687 339.225C329.841 338.884 332.545 336.955 333.993 334.207L326.687 339.225Z" fill="#1C1C1C"/>
<path d="M326.687 339.225C329.841 338.884 332.545 336.955 333.993 334.207" stroke="#F3A2A9" stroke-width="4" stroke-linecap="round" stroke-linejoin="round"/>
<path d="M317.517 312.246C318.152 311.064 318.541 309.73 318.598 308.3L317.517 312.246Z" fill="#1C1C1C"/>
<path d="M317.517 312.246C318.152 311.064 318.541 309.73 318.598 308.3" stroke="#F3A2A9" stroke-width="4" stroke-linecap="round" stroke-linejoin="round"/>
<path d="M343.954 324.609C343.954 324.609 346.732 325.777 348.057 326.858L343.954 324.609Z" fill="#1C1C1C"/>
<path d="M343.954 324.609C343.954 324.609 346.732 325.777 348.057 326.858" stroke="#F3A2A9" stroke-width="4" stroke-linecap="round" stroke-linejoin="round"/>
</g>
<defs>
<filter id="filter0_f_1161_1080" x="35.27" y="144.451" width="488.732" height="349.575" filterUnits="userSpaceOnUse" color-interpolation-filters="sRGB">
<feFlood flood-opacity="0" result="BackgroundImageFix"/>
<feBlend mode="normal" in="SourceGraphic" in2="BackgroundImageFix" result="shape"/>
<feGaussianBlur stdDeviation="40" result="effect1_foregroundBlur_1161_1080"/>
</filter>
<filter id="filter1_f_1161_1080" x="24.1778" y="-8.82227" width="508.899" height="332.433" filterUnits="userSpaceOnUse" color-interpolation-filters="sRGB">
<feFlood flood-opacity="0" result="BackgroundImageFix"/>
<feBlend mode="normal" in="SourceGraphic" in2="BackgroundImageFix" result="shape"/>
<feGaussianBlur stdDeviation="40" result="effect1_foregroundBlur_1161_1080"/>
</filter>
<linearGradient id="paint0_linear_1161_1080" x1="216.392" y1="215.212" x2="218.518" y2="219.043" gradientUnits="userSpaceOnUse">
<stop stop-color="#F3A2A9"/>
<stop offset="1" stop-color="#F3A2A9"/>
</linearGradient>
<linearGradient id="paint1_linear_1161_1080" x1="284.74" y1="245.965" x2="287.664" y2="251.236" gradientUnits="userSpaceOnUse">
<stop stop-color="#F3A2A9"/>
<stop offset="1" stop-color="#F3A2A9"/>
</linearGradient>
<linearGradient id="paint2_linear_1161_1080" x1="303.765" y1="245.374" x2="306.816" y2="250.874" gradientUnits="userSpaceOnUse">
<stop stop-color="#F3A2A9"/>
<stop offset="1" stop-color="#F3A2A9"/>
</linearGradient>
<linearGradient id="paint3_linear_1161_1080" x1="320.696" y1="236.856" x2="321.926" y2="239.074" gradientUnits="userSpaceOnUse">
<stop stop-color="#F3A2A9"/>
<stop offset="1" stop-color="#F3A2A9"/>
</linearGradient>
<linearGradient id="paint4_linear_1161_1080" x1="287.032" y1="157.82" x2="290.385" y2="163.866" gradientUnits="userSpaceOnUse">
<stop stop-color="#F3A2A9"/>
<stop offset="1" stop-color="#F3A2A9"/>
</linearGradient>
<linearGradient id="paint5_linear_1161_1080" x1="311.343" y1="156.461" x2="311.367" y2="156.504" gradientUnits="userSpaceOnUse">
<stop stop-color="#F3A2A9"/>
<stop offset="1" stop-color="#F3A2A9"/>
</linearGradient>
<linearGradient id="paint6_linear_1161_1080" x1="320.916" y1="151.161" x2="326.426" y2="161.094" gradientUnits="userSpaceOnUse">
<stop stop-color="#F3A2A9"/>
<stop offset="1" stop-color="#F3A2A9"/>
</linearGradient>
<linearGradient id="paint7_linear_1161_1080" x1="363.293" y1="205.742" x2="364.422" y2="207.778" gradientUnits="userSpaceOnUse">
<stop stop-color="#F3A2A9"/>
<stop offset="1" stop-color="#F3A2A9"/>
</linearGradient>
<linearGradient id="paint8_linear_1161_1080" x1="337.874" y1="156.22" x2="338.091" y2="156.611" gradientUnits="userSpaceOnUse">
<stop stop-color="#F3A2A9"/>
<stop offset="1" stop-color="#F3A2A9"/>
</linearGradient>
<linearGradient id="paint9_linear_1161_1080" x1="367.382" y1="196.771" x2="368.835" y2="199.391" gradientUnits="userSpaceOnUse">
<stop stop-color="#F3A2A9"/>
<stop offset="1" stop-color="#F3A2A9"/>
</linearGradient>
<linearGradient id="paint10_linear_1161_1080" x1="362.479" y1="184.111" x2="363.02" y2="185.087" gradientUnits="userSpaceOnUse">
<stop stop-color="#F3A2A9"/>
<stop offset="1" stop-color="#F3A2A9"/>
</linearGradient>
</defs>
</svg>
