<svg width="1920" height="480" viewBox="0 0 1920 480" fill="none" xmlns="http://www.w3.org/2000/svg">
<mask id="mask0_5_122" style="mask-type:alpha" maskUnits="userSpaceOnUse" x="681" y="10" width="558" height="460">
<rect x="681" y="10" width="558" height="460" fill="#C4C4C4"/>
</mask>
<g mask="url(#mask0_5_122)">
<g filter="url(#filter0_f_5_122)">
<path d="M1125 234.451C1088.32 335.179 960.636 424.027 960.636 424.027C960.636 424.027 832.954 335.179 796.27 234.451C800.675 244.96 872.579 253.317 960.636 253.317C1048.69 253.317 1120.6 244.96 1125 234.451Z" fill="#EE614C"/>
</g>
<g filter="url(#filter1_f_5_122)">
<path d="M959.627 128.304C900.731 38.8614 785.178 87.6307 785.178 183.649C785.178 200.706 788.742 217.796 794.855 234.558C794.883 234.645 794.915 234.727 794.947 234.809C799.36 245.282 871.402 253.61 959.627 253.61C1047.85 253.61 1119.89 245.282 1124.31 234.809C1124.34 234.727 1124.37 234.645 1124.4 234.558C1130.51 217.796 1134.08 200.706 1134.08 183.649C1134.08 87.6307 1018.52 38.8614 959.627 128.304Z" fill="#EE614C"/>
</g>
<path d="M959.671 129.172C901.956 41.4076 788.719 89.2621 788.719 183.479C788.719 200.217 792.211 216.986 798.202 233.433C798.229 233.518 798.26 233.599 798.292 233.679C802.617 243.956 873.214 252.128 959.671 252.128C1046.13 252.128 1116.72 243.956 1121.05 233.679C1121.08 233.599 1121.11 233.518 1121.14 233.433C1127.13 216.986 1130.62 200.217 1130.62 183.479C1130.62 89.2621 1017.39 41.4076 959.671 129.172Z" fill="#EE614C"/>
<path opacity="0.5" d="M1107.39 189.914C1107.26 194.761 1106.78 199.738 1105.96 204.815" stroke="#F5F5F5" stroke-width="12" stroke-miterlimit="10" stroke-linecap="round"/>
<path opacity="0.5" d="M1089.18 127.023C1099.52 139.531 1105.63 155.426 1106.62 172.766" stroke="#F5F5F5" stroke-width="12" stroke-miterlimit="10" stroke-linecap="round"/>
<path opacity="0.5" d="M892.863 108.041C908.694 112.286 922.239 121.664 932.65 135.298" stroke="#F5F5F5" stroke-width="12" stroke-miterlimit="10" stroke-linecap="round"/>
<path d="M1121.26 232.683C1121.26 232.933 1121.22 233.183 1121.14 233.434C1121.11 233.518 1121.08 233.599 1121.05 233.679C1116.72 243.956 1046.13 252.129 959.671 252.129C873.214 252.129 802.617 243.956 798.292 233.679C798.26 233.599 798.229 233.518 798.202 233.434C798.126 233.183 798.086 232.933 798.086 232.683C798.086 221.946 870.429 213.237 959.671 213.237C1048.91 213.237 1121.26 221.946 1121.26 232.683Z" fill="#CD4F3B"/>
<path d="M959.671 129.172C901.956 41.4076 788.719 89.2621 788.719 183.479C788.719 200.217 792.211 216.986 798.202 233.433C798.229 233.518 798.26 233.599 798.292 233.679C802.617 243.956 873.214 252.128 959.671 252.128C1046.13 252.128 1116.72 243.956 1121.05 233.679C1121.08 233.599 1121.11 233.518 1121.14 233.433C1127.13 216.986 1130.62 200.217 1130.62 183.479C1130.62 89.2621 1017.39 41.4076 959.671 129.172Z" stroke="white" stroke-width="4" stroke-miterlimit="10"/>
<path d="M1121.26 232.683C1121.26 232.933 1121.22 233.183 1121.14 233.434C1121.11 233.518 1121.08 233.599 1121.05 233.679C1116.72 243.956 1046.13 252.129 959.671 252.129C873.214 252.129 802.617 243.956 798.292 233.679C798.26 233.599 798.229 233.518 798.202 233.434C798.126 233.183 798.086 232.933 798.086 232.683C798.086 221.946 870.429 213.237 959.671 213.237C1048.91 213.237 1121.26 221.946 1121.26 232.683Z" stroke="white" stroke-width="4" stroke-miterlimit="10"/>
<path d="M900.533 259.82L900.495 259.617C893.542 261.036 886.181 257.885 882.557 251.351C878.085 243.288 880.997 233.124 889.06 228.652C890.712 227.736 892.451 227.13 894.214 226.815L891.186 226.612C888.401 225.152 885.998 222.889 884.359 219.933C879.886 211.87 882.798 201.706 890.861 197.234C895.062 194.904 899.874 194.453 904.073 195.938C907.545 197.169 912.552 199.325 917.228 203.137C922.466 207.406 925.219 208.749 929.509 209.239C932.512 209.582 934.14 209.827 935.579 209.317C937.317 208.7 939.146 207.651 939.481 206.004C939.837 204.266 939.483 203.42 937.972 202.249C936.835 201.368 932.23 200.49 930.468 199.636C928.846 198.848 927.722 197.222 926.789 195.538C923.495 189.6 925.639 182.114 931.578 178.82C934.547 177.173 937.903 176.885 940.929 177.752L941.007 177.924C941.018 175.429 941.639 172.942 942.905 170.79C946.319 164.982 953.81 162.067 960.365 163.62C963.139 164.28 965.771 165.77 967.728 167.83L966.801 166.034C966.804 161.492 969.206 157.089 973.459 154.73C979.701 151.268 987.569 153.522 991.031 159.764C992.132 161.75 992.164 164.286 992.159 166.413C992.142 166.419 992.128 166.424 992.111 166.431L992.159 166.455C1000.02 163.614 1008.75 163.451 1016.78 165.747C1017.35 165.91 1017.92 166.088 1018.49 166.277C1018.68 166.34 1018.87 166.404 1019.06 166.472C1020.93 167.128 1022.76 167.921 1024.52 168.851C1034.1 173.915 1041.52 182.819 1045.07 193.061L1045.08 193.061C1049.08 190.842 1054.12 192.286 1056.34 196.287C1058.56 200.288 1057.12 205.327 1053.12 207.546C1052.7 207.776 1052.28 207.966 1051.84 208.117C1054.47 209.294 1055.9 212.253 1055.09 215.101C1054.19 218.222 1050.94 220.028 1047.82 219.133C1046.84 218.854 1045.99 218.343 1045.32 217.679L1045.78 218.361C1042.84 229.454 1035.57 239.378 1024.74 245.381C1018.46 248.865 1011.69 250.636 1004.98 250.849L1003.02 248.863C1003.32 249.248 1003.58 249.659 1003.83 250.095C1006.58 255.064 1004.79 261.328 999.818 264.084C995.299 266.59 989.717 265.336 986.664 261.353C986.201 264.394 984.381 267.193 981.485 268.8C976.516 271.556 970.252 269.761 967.496 264.793C966.673 265.843 964.157 267.879 962.915 268.568C957.946 271.323 951.466 269.643 948.926 264.56C945.636 257.977 951.321 253.211 951.613 250.644C951.858 248.499 951.689 247.158 949.837 245.889C949.183 245.44 947.258 245.156 945.598 245.537C943.936 245.919 942.357 246.781 941.183 248.018C935.255 254.264 932.935 260.43 931.308 271.534C930.728 275.486 928.353 279.105 924.898 281.678C917.5 287.182 907.041 285.648 901.537 278.249C897.407 272.702 897.237 265.432 900.533 259.82Z" fill="#F2B458"/>
<path d="M894.426 226.857L902.484 227.398C899.911 226.572 897.143 226.368 894.426 226.857Z" fill="url(#paint0_linear_5_122)"/>
<path d="M966.714 262.318L967.69 254.883C966.46 257.121 966.085 259.777 966.714 262.318Z" fill="url(#paint1_linear_5_122)"/>
<path d="M985.705 254.853L986.875 261.393L986.876 261.395C987.211 259.22 986.854 256.925 985.705 254.853Z" fill="url(#paint2_linear_5_122)"/>
<path d="M1001.39 247.026L1003.23 248.904C1002.69 248.188 1002.07 247.563 1001.39 247.026Z" fill="url(#paint3_linear_5_122)"/>
<path d="M967.94 167.871L971.112 174.018C970.723 171.682 969.564 169.582 967.94 167.871Z" fill="url(#paint4_linear_5_122)"/>
<path d="M992.319 166.474L992.372 166.501C992.373 166.485 992.373 166.469 992.371 166.455C992.353 166.462 992.337 166.467 992.319 166.474Z" fill="url(#paint5_linear_5_122)"/>
<path d="M992.371 166.455C992.372 166.469 992.372 166.483 992.371 166.498C1000.24 163.656 1008.96 163.493 1016.99 165.79C1008.96 163.489 1000.23 163.628 992.371 166.455Z" fill="url(#paint6_linear_5_122)"/>
<path d="M1044.22 215.783C1044.52 216.506 1044.97 217.165 1045.53 217.719L1044.22 215.783Z" fill="url(#paint7_linear_5_122)"/>
<path d="M1018.7 166.318C1018.89 166.381 1019.08 166.445 1019.27 166.513C1019.08 166.445 1018.89 166.381 1018.7 166.318Z" fill="url(#paint8_linear_5_122)"/>
<path d="M1052.06 208.159L1046.16 208.003C1048 208.759 1050.1 208.851 1052.06 208.159Z" fill="url(#paint9_linear_5_122)"/>
<path d="M1042.2 196.095L1045.3 193.103C1043.97 193.838 1042.93 194.882 1042.2 196.095Z" fill="url(#paint10_linear_5_122)"/>
<path d="M971.111 174.018C970.723 171.682 969.563 169.582 967.94 167.871C965.983 165.811 963.351 164.321 960.577 163.661C954.022 162.108 946.531 165.024 943.117 170.831C941.851 172.983 941.231 175.471 941.219 177.965C941.196 182.202 942.928 186.453 946.245 189.096" stroke="white" stroke-width="4" stroke-miterlimit="10" stroke-linecap="round"/>
<path d="M967.134 166.829C966.77 161.609 969.418 157.129 973.672 154.77C979.913 151.309 987.781 153.562 991.243 159.804C992.344 161.79 992.377 164.326 992.371 166.453C992.373 166.467 992.372 166.481 992.372 166.496C1000.24 163.654 1008.96 163.491 1016.99 165.788C1017.56 165.951 1018.13 166.128 1018.7 166.318C1018.89 166.38 1019.08 166.444 1019.27 166.512C1021.14 167.168 1022.97 167.961 1024.73 168.892C1034.32 173.956 1041.74 182.86 1045.29 193.101" stroke="white" stroke-width="4" stroke-miterlimit="10" stroke-linecap="round"/>
<path d="M902.483 227.398C899.91 226.572 897.143 226.368 894.426 226.856C892.663 227.171 890.925 227.777 889.272 228.693C881.209 233.165 878.297 243.329 882.769 251.392C886.393 257.926 893.754 261.078 900.707 259.658C902.334 259.327 903.939 258.743 905.469 257.895C909.237 255.805 911.878 252.475 913.171 248.696" stroke="white" stroke-width="4" stroke-miterlimit="10" stroke-linecap="round"/>
<path d="M985.18 177.503C983.781 186.389 983.773 195.502 985.226 204.49C986.879 214.74 990.433 224.827 995.981 234.225C996.946 235.86 997.973 237.474 999.06 239.066" stroke="white" stroke-width="4" stroke-miterlimit="10" stroke-linecap="round"/>
<path d="M992.2 193.773C992.114 198.402 992.674 203.236 993.888 208.096C995.271 213.636 997.506 219.208 1000.6 224.537" stroke="white" stroke-width="4" stroke-miterlimit="10" stroke-linecap="round"/>
<path d="M1005.19 250.89C1011.91 250.677 1018.67 248.906 1024.96 245.422C1035.78 239.419 1043.05 229.495 1045.99 218.402" stroke="white" stroke-width="4" stroke-miterlimit="10" stroke-linecap="round"/>
<path d="M1027.9 200.974C1025.2 202.472 1021.8 201.497 1020.3 198.795C1018.8 196.094 1019.78 192.69 1022.48 191.191C1025.18 189.693 1028.58 190.668 1030.08 193.37C1031.58 196.071 1030.6 199.475 1027.9 200.974Z" stroke="white" stroke-width="4" stroke-miterlimit="10" stroke-linecap="round"/>
<path d="M1046.16 208.002C1048 208.758 1050.1 208.85 1052.06 208.157C1052.49 208.006 1052.92 207.816 1053.33 207.586C1057.33 205.367 1058.77 200.328 1056.56 196.327C1054.34 192.326 1049.3 190.883 1045.3 193.102C1043.97 193.837 1042.93 194.881 1042.2 196.095" stroke="white" stroke-width="4" stroke-miterlimit="10" stroke-linecap="round"/>
<path d="M1044.22 215.783C1044.52 216.506 1044.97 217.165 1045.53 217.719C1046.2 218.384 1047.05 218.894 1048.03 219.174C1051.15 220.068 1054.4 218.263 1055.3 215.141C1056.11 212.294 1054.68 209.335 1052.06 208.158" stroke="white" stroke-width="4" stroke-miterlimit="10" stroke-linecap="round"/>
<path d="M986.875 261.392L986.876 261.394C989.929 265.377 995.512 266.631 1000.03 264.125C1005 261.369 1006.79 255.105 1004.04 250.136C1003.8 249.699 1003.53 249.288 1003.23 248.903C1002.69 248.187 1002.07 247.562 1001.39 247.025" stroke="white" stroke-width="4" stroke-miterlimit="10" stroke-linecap="round"/>
<path d="M967.691 254.882C966.461 257.12 966.086 259.776 966.714 262.317C966.93 263.176 967.258 264.021 967.708 264.833C970.464 269.802 976.728 271.597 981.697 268.841C984.594 267.234 986.413 264.434 986.876 261.394C987.211 259.219 986.853 256.924 985.704 254.852" stroke="white" stroke-width="4" stroke-miterlimit="10" stroke-linecap="round"/>
<path d="M983.971 246.051C984.084 245.991 984.197 245.931 984.309 245.869" stroke="white" stroke-width="4" stroke-miterlimit="10" stroke-linecap="round"/>
<path d="M969.58 219.314C968.038 220.17 966.702 221.255 965.595 222.503C961.431 227.186 960.456 234.166 963.667 239.956C967.671 247.174 976.689 249.851 983.964 246.054" stroke="white" stroke-width="4" stroke-miterlimit="10" stroke-linecap="round"/>
<path d="M982.102 246.806C982.746 246.564 983.365 246.315 983.964 246.055C983.966 246.053 983.969 246.052 983.971 246.051C989.351 243.716 993.043 240.506 995.834 234.311" stroke="white" stroke-width="4" stroke-miterlimit="10" stroke-linecap="round"/>
<path d="M985.227 204.492C981.792 201.869 977.747 200.149 973.959 199.914C971.479 199.76 968.863 200.258 966.558 201.189C963.323 202.496 960.448 204.882 958.492 207.772C956.539 210.661 955.814 214.507 957.159 217.724C958.505 220.943 962.149 223.212 965.556 222.468" stroke="white" stroke-width="4" stroke-miterlimit="10" stroke-linecap="round"/>
<path d="M989.179 220.036C989.065 219.763 988.73 219.671 988.439 219.622C984.351 218.957 980.212 220.59 976.726 222.827" stroke="white" stroke-width="4" stroke-miterlimit="10" stroke-linecap="round"/>
<path d="M992.379 227.627C991.849 228.719 990.992 229.622 990.063 230.404C987.251 232.77 983.629 234.156 979.955 234.268" stroke="white" stroke-width="4" stroke-miterlimit="10" stroke-linecap="round"/>
<path d="M938.279 217.761C937.374 219.704 937.44 221.954 937.713 224.081C938.284 228.537 939.696 232.882 941.84 236.827C942.356 237.778 942.916 238.704 943.516 239.605" stroke="white" stroke-width="4" stroke-miterlimit="10" stroke-linecap="round"/>
<path d="M937.167 221.245C932.096 221.902 926.958 220.771 922.078 219.248" stroke="white" stroke-width="4" stroke-miterlimit="10" stroke-linecap="round"/>
<path d="M938.427 228.856C933.328 230.906 927.998 232.373 922.567 233.219" stroke="white" stroke-width="4" stroke-miterlimit="10" stroke-linecap="round"/>
<path d="M941.84 236.827C936.309 237.576 931.225 241.096 928.584 246.01" stroke="white" stroke-width="4" stroke-miterlimit="10" stroke-linecap="round"/>
<path d="M941.141 177.793C938.115 176.926 934.76 177.214 931.79 178.861C925.852 182.155 923.707 189.641 927.001 195.579C927.935 197.262 929.058 198.889 930.68 199.677C932.442 200.531 937.047 201.409 938.185 202.29C939.695 203.461 940.049 204.307 939.693 206.045C939.358 207.692 937.529 208.74 935.791 209.357C934.352 209.868 932.724 209.623 929.721 209.28C925.432 208.79 922.678 207.447 917.441 203.178C912.764 199.366 907.757 197.21 904.285 195.979C900.086 194.494 895.274 194.945 891.073 197.275C883.01 201.747 880.099 211.911 884.571 219.974C886.21 222.93 889.771 225.828 892.555 227.288" stroke="white" stroke-width="4" stroke-miterlimit="10" stroke-linecap="round"/>
<path d="M900.745 259.861C897.45 265.474 897.619 272.744 901.749 278.291C907.253 285.69 917.712 287.224 925.111 281.72C928.565 279.147 930.94 275.528 931.52 271.576C933.147 260.471 935.467 254.306 941.395 248.059C942.569 246.823 944.148 245.961 945.81 245.579C948.138 245.25 952.6 245.81 951.825 250.686C951.533 253.253 945.848 258.018 949.138 264.602C951.679 269.684 958.158 271.365 963.127 268.609C964.369 267.92 965.526 267.09 967.534 264.804" stroke="white" stroke-width="4" stroke-miterlimit="10" stroke-linecap="round"/>
<path d="M890.182 216.839C887.655 212.283 889.3 206.541 893.856 204.014" stroke="white" stroke-width="4" stroke-linecap="round"/>
<path d="M893.596 234.642C888.515 235.91 885.424 241.058 886.692 246.139C887.96 251.221 893.108 254.312 898.189 253.044" stroke="white" stroke-width="4" stroke-linecap="round"/>
<path d="M905.744 271.367C907.013 276.448 912.16 279.539 917.242 278.271C922.323 277.003 925.414 271.855 924.146 266.774" stroke="white" stroke-width="4" stroke-linecap="round"/>
<path d="M962.866 173.829C960.718 169.957 955.838 168.559 951.966 170.707C948.093 172.854 946.695 177.735 948.843 181.607" stroke="white" stroke-width="4" stroke-linecap="round"/>
<path d="M1120.25 232.829C1084.23 331.335 958.867 418.224 958.867 418.224C958.867 418.224 833.505 331.335 797.488 232.829C801.813 243.106 872.411 251.278 958.867 251.278C1045.32 251.278 1115.92 243.106 1120.25 232.829Z" fill="#EE614C"/>
<path opacity="0.5" d="M1120.25 232.829C1084.23 331.335 958.867 418.224 958.867 418.224C958.867 418.224 833.505 331.335 797.488 232.829C801.813 243.106 872.411 251.278 958.867 251.278C1045.32 251.278 1115.92 243.106 1120.25 232.829Z" fill="#EE614C"/>
<path opacity="0.5" d="M853.061 261.372C847.648 260.751 842.59 260.088 837.899 259.389C834.438 258.873 831.916 262.596 833.688 265.609C837.682 272.4 842.118 279.28 846.981 286.229" stroke="#F5F5F5" stroke-width="12" stroke-miterlimit="10" stroke-linecap="round" stroke-linejoin="round"/>
<path d="M1121.05 233.68C1085.03 332.186 959.671 419.075 959.671 419.075C959.671 419.075 834.309 332.186 798.292 233.68C802.617 243.957 873.214 252.129 959.671 252.129C1046.13 252.129 1116.72 243.957 1121.05 233.68Z" stroke="white" stroke-width="4" stroke-miterlimit="10"/>
<path d="M948.107 323.372C945.124 320.887 937.547 315.554 934.021 313.415C937.109 310.576 937.481 306.371 935.582 303.392C933.496 300.111 928.955 299.499 924.506 301.559C915.179 305.304 898.143 318.511 893.112 324.57C890.579 327.624 890.509 331.697 892.592 334.475C895.033 337.73 899.863 336.947 903.695 335.862C907.44 334.803 916.316 328.547 922.314 323.284C927.091 328.342 933.671 332.944 940.473 335.862C945.329 337.944 950.19 336.557 951.577 333.779C952.968 331.006 952.272 326.841 948.107 323.372Z" fill="#1C1C1C" stroke="#F3A2A9" stroke-width="4" stroke-linecap="round" stroke-linejoin="round"/>
<path d="M934.021 313.419C933.662 313.748 933.268 314.058 932.835 314.347Z" fill="#1C1C1C"/>
<path d="M934.021 313.419C933.662 313.748 933.268 314.058 932.835 314.347" stroke="#F3A2A9" stroke-width="4" stroke-linecap="round" stroke-linejoin="round"/>
<path d="M925.21 320.598C924.37 321.438 923.39 322.348 922.318 323.288Z" fill="#1C1C1C"/>
<path d="M925.21 320.598C924.37 321.438 923.39 322.348 922.318 323.288" stroke="#F3A2A9" stroke-width="4" stroke-linecap="round" stroke-linejoin="round"/>
<path d="M961.638 342.171C961.638 345.167 959.495 348.339 953.164 348.838C942.171 349.669 906.451 349.918 892.793 348.838C886.462 348.339 884.555 345.167 884.555 342.171C884.555 339.091 886.467 335.184 892.793 334.681C905.615 333.683 942.171 333.85 953.164 334.681C959.49 335.18 961.638 339.091 961.638 342.171Z" fill="#1C1C1C" stroke="#F3A2A9" stroke-width="4" stroke-linecap="round" stroke-linejoin="round"/>
<path d="M915.861 337.056C914.85 335.709 914.251 334.037 914.251 332.226C914.251 327.782 917.856 324.177 922.301 324.177C926.745 324.177 930.35 327.782 930.35 332.226C930.35 334.037 929.751 335.713 928.74 337.056" fill="#1C1C1C"/>
<path d="M915.861 337.056C914.85 335.709 914.251 334.037 914.251 332.226C914.251 327.782 917.856 324.177 922.301 324.177C926.745 324.177 930.35 327.782 930.35 332.226C930.35 334.037 929.751 335.713 928.74 337.056" stroke="#F3A2A9" stroke-width="4" stroke-linecap="round" stroke-linejoin="round"/>
<path d="M954.022 362.084C953.357 357.919 950.417 354.463 945.168 353.33C934.568 351.037 906.639 351.89 899.902 353.282C893.72 354.559 891.817 358.002 891.817 361.585C891.817 364.914 894.805 367.889 900.886 368.725C908.406 369.788 924.217 370.133 934.515 368.646C933.824 371.419 933.824 374.407 934.515 376.485C935.421 379.198 938.68 382.037 944.192 381.735C948.387 381.508 952.08 378.717 953.252 375.79C954.639 372.321 954.687 366.415 954.022 362.084Z" fill="#1C1C1C" stroke="#F3A2A9" stroke-width="4" stroke-linecap="round" stroke-linejoin="round"/>
<path d="M937.293 368.16C936.44 368.344 935.508 368.506 934.515 368.65Z" fill="#1C1C1C"/>
<path d="M937.293 368.16C936.44 368.344 935.508 368.506 934.515 368.65" stroke="#F3A2A9" stroke-width="4" stroke-linecap="round" stroke-linejoin="round"/>
<path d="M879.778 323.156C876.821 320.693 869.695 315.036 866.212 312.915C868.912 310.115 869.17 306.186 867.372 303.365C865.302 300.114 860.805 299.506 856.4 301.549C847.16 305.259 830.282 318.339 825.304 324.342C822.793 327.364 822.723 331.402 824.788 334.15C827.207 337.374 831.993 336.595 835.786 335.523C839.43 334.491 847.978 328.498 853.911 323.344C858.653 328.362 865.46 332.627 872.219 335.523C877.031 337.584 881.843 336.21 883.217 333.463C884.586 330.72 883.9 326.595 879.778 323.156Z" fill="#1C1C1C" stroke="#F3A2A9" stroke-width="4" stroke-linecap="round" stroke-linejoin="round"/>
<path d="M881.813 371.322C885.251 367.197 884.753 359.725 884.446 356.487C883.952 351.29 880.815 348.486 871.825 347.742C862.258 346.915 844.273 346.998 834.46 347.991C827.697 348.652 824.481 351.456 823.571 356.404C822.911 359.952 822.911 369.546 823.571 373.094C824.726 379.114 828.852 381.095 835.038 381.918C843.205 382.99 865.972 382.99 873.973 382.167C881.314 381.423 884.354 380.255 884.595 376.086C884.774 372.827 881.813 371.322 881.813 371.322ZM841.521 368.461C842.991 366.584 843.026 364.056 841.631 361.711C849.028 363.006 858.29 363.006 865.035 361.706C863.806 364.064 863.846 366.606 865.149 368.487C858.355 367.175 846.447 367.166 841.521 368.461Z" fill="#1C1C1C" stroke="#F3A2A9" stroke-width="4" stroke-linecap="round" stroke-linejoin="round"/>
<path d="M839.907 359.589C843.573 363.028 843.573 367.608 839.907 369.901Z" fill="#1C1C1C"/>
<path d="M839.907 359.589C843.573 363.028 843.573 367.608 839.907 369.901" stroke="#F3A2A9" stroke-width="4" stroke-linecap="round" stroke-linejoin="round"/>
<path d="M866.545 369.901C863.338 367.608 863.338 363.028 866.545 359.589Z" fill="#1C1C1C"/>
<path d="M866.545 369.901C863.338 367.608 863.338 363.028 866.545 359.589" stroke="#F3A2A9" stroke-width="4" stroke-linecap="round" stroke-linejoin="round"/>
<path d="M891.516 342.405C891.516 345.375 889.39 348.516 883.121 349.011C872.232 349.838 836.849 350.083 823.318 349.011C817.049 348.516 815.154 345.375 815.154 342.405C815.154 339.351 817.049 335.484 823.318 334.985C836.022 333.997 872.232 334.158 883.121 334.985C889.394 335.484 891.516 339.351 891.516 342.405Z" fill="#1C1C1C" stroke="#F3A2A9" stroke-width="4" stroke-linecap="round" stroke-linejoin="round"/>
<path d="M866.208 312.919C865.757 313.387 865.237 313.824 864.646 314.218Z" fill="#1C1C1C"/>
<path d="M866.208 312.919C865.757 313.387 865.237 313.824 864.646 314.218" stroke="#F3A2A9" stroke-width="4" stroke-linecap="round" stroke-linejoin="round"/>
<path d="M857.091 320.408C856.172 321.327 855.091 322.32 853.906 323.353Z" fill="#1C1C1C"/>
<path d="M857.091 320.408C856.172 321.327 855.091 322.32 853.906 323.353" stroke="#F3A2A9" stroke-width="4" stroke-linecap="round" stroke-linejoin="round"/>
<path d="M778.347 311.837C769.518 310.765 762.838 310.765 755.414 311.588C749.311 312.248 746.091 315.879 746.258 320.827C746.424 325.692 750.055 327.805 755.086 328.133C759.216 328.426 765.104 328.623 769.619 328.251H769.606C769.606 328.251 756.565 351.63 748.725 360.17C745.015 364.212 744.105 369.077 748.064 372.708C751.695 376.089 757.221 375.923 761.346 372.791C772.235 364.544 781.886 347.548 786.422 336.248C789.227 329.319 789.393 325.526 788.815 321.072C788.159 315.963 784.283 312.581 778.347 311.837Z" fill="#1C1C1C" stroke="#F3A2A9" stroke-width="4" stroke-linecap="round" stroke-linejoin="round"/>
<path d="M774.335 327.446C773.154 327.84 771.505 328.098 769.61 328.251Z" fill="#1C1C1C"/>
<path d="M774.335 327.446C773.154 327.84 771.505 328.098 769.61 328.251" stroke="#F3A2A9" stroke-width="4" stroke-linecap="round" stroke-linejoin="round"/>
<path d="M813.402 330.898C813.318 323.885 813.152 317.616 812.824 313.495C812.33 306.977 808.371 304.339 803.751 304.339C799.214 304.339 795.5 306.815 794.594 313.246C793.409 321.558 793.033 339.293 793.501 353.874C793.711 361.78 794.131 368.924 794.756 373.482C795.583 379.423 797.81 382.883 803.335 383.05C808.944 383.216 812.325 379.751 812.82 372.988C813.148 368.368 813.432 359.321 813.515 351.569L813.402 330.898Z" fill="#1C1C1C" stroke="#F3A2A9" stroke-width="4" stroke-linecap="round" stroke-linejoin="round"/>
<path d="M811.013 333.488C812.562 332.324 814.491 331.633 816.578 331.633C821.696 331.633 825.848 335.784 825.848 340.903C825.848 346.021 821.696 350.173 816.578 350.173C814.491 350.173 812.566 349.482 811.013 348.318" fill="#1C1C1C"/>
<path d="M811.013 333.488C812.562 332.324 814.491 331.633 816.578 331.633C821.696 331.633 825.848 335.784 825.848 340.903C825.848 346.021 821.696 350.173 816.578 350.173C814.491 350.173 812.566 349.482 811.013 348.318" stroke="#F3A2A9" stroke-width="4" stroke-linecap="round"/>
<path d="M1162.63 364.926C1154.98 363.845 1135.5 363.263 1125.06 364.786C1125.77 361.968 1125.85 358.928 1125.14 356.819C1124.22 354.063 1120.92 351.184 1115.32 351.491C1111.06 351.722 1107.31 354.553 1106.13 357.523C1104.72 361.045 1104.67 367.039 1105.35 371.431C1106.03 375.657 1107.6 379.935 1113.01 380.613C1121.37 381.628 1154.99 381.711 1161.92 380.697C1168.26 379.765 1170.66 375.569 1170.66 371.938C1170.66 368.561 1168.8 365.774 1162.63 364.926Z" fill="#1C1C1C" stroke="#F3A2A9" stroke-width="4" stroke-linecap="round" stroke-linejoin="round"/>
<path d="M1122.33 365.271C1123.17 365.092 1124.09 364.93 1125.06 364.786Z" fill="#1C1C1C"/>
<path d="M1122.33 365.271C1123.17 365.092 1124.09 364.93 1125.06 364.786" stroke="#F3A2A9" stroke-width="4" stroke-linecap="round" stroke-linejoin="round"/>
<path d="M1155.65 342.619C1154.42 334.328 1155.32 314.331 1155.5 312.472C1156.06 306.457 1158.33 302.406 1163.96 302.471C1169.6 302.537 1172.48 307.371 1172.9 312.28C1173.66 321.173 1174.1 341.722 1173 350.922C1172.24 357.313 1169.33 360.59 1164.59 361.028C1163.92 361.089 1159.89 360.914 1158.5 358.783" fill="#1C1C1C"/>
<path d="M1155.65 342.619C1154.42 334.328 1155.32 314.331 1155.5 312.472C1156.06 306.457 1158.33 302.406 1163.96 302.471C1169.6 302.537 1172.48 307.371 1172.9 312.28C1173.66 321.173 1174.1 341.722 1173 350.922C1172.24 357.313 1169.33 360.59 1164.59 361.028C1163.92 361.089 1159.89 360.914 1158.5 358.783" stroke="#F3A2A9" stroke-width="4" stroke-linecap="round" stroke-linejoin="round"/>
<path d="M1160.98 356.264C1159.37 358.866 1156.5 360.603 1153.21 360.603C1148.17 360.603 1144.08 356.513 1144.08 351.473C1144.08 346.433 1148.17 342.343 1153.21 342.343C1154.64 342.343 1155.98 342.671 1157.18 343.253" fill="#1C1C1C"/>
<path d="M1160.98 356.264C1159.37 358.866 1156.5 360.603 1153.21 360.603C1148.17 360.603 1144.08 356.513 1144.08 351.473C1144.08 346.433 1148.17 342.343 1153.21 342.343C1154.64 342.343 1155.98 342.671 1157.18 343.253" stroke="#F3A2A9" stroke-width="4" stroke-linecap="round" stroke-linejoin="round"/>
<path d="M1124.93 302.703C1110.4 302.703 1102.2 307.52 1102.2 318.758C1102.2 329.914 1110.4 334.814 1124.93 334.814C1139.46 334.814 1147.66 329.914 1147.66 318.758C1147.66 307.52 1139.46 302.703 1124.93 302.703ZM1124.93 321.374C1121.21 321.374 1119.69 320.106 1119.69 318.754C1119.69 317.231 1121.22 316.133 1124.93 316.133C1128.65 316.133 1130.26 317.231 1130.26 318.754C1130.26 320.106 1128.65 321.374 1124.93 321.374Z" fill="#1C1C1C" stroke="#F3A2A9" stroke-width="4"/>
<path d="M1125.44 349.037C1123.11 349.01 1109.09 348.669 1107.48 348.56C1102.17 348.131 1099.25 345.712 1099.24 341.573C1099.22 337.601 1101.75 335.322 1107.13 334.609C1113.57 333.755 1137.66 333.913 1143.72 334.985C1148.9 335.899 1151.2 337.478 1151.21 341.788C1151.23 345.589 1148.06 348.157 1142.81 348.656C1140.86 348.879 1128.21 349.072 1125.44 349.037Z" fill="#1C1C1C" stroke="#F3A2A9" stroke-width="4"/>
<path d="M1131.2 345.274C1132.22 346.639 1132.83 348.336 1132.83 350.174C1132.83 354.684 1129.3 357.051 1124.79 357.051C1120.28 357.051 1116.49 354.684 1116.49 350.174C1116.49 348.336 1117.1 346.639 1118.12 345.274" fill="#1C1C1C"/>
<path d="M1131.2 345.274C1132.22 346.639 1132.83 348.336 1132.83 350.174C1132.83 354.684 1129.3 357.051 1124.79 357.051C1120.28 357.051 1116.49 354.684 1116.49 350.174C1116.49 348.336 1117.1 346.639 1118.12 345.274" stroke="#F3A2A9" stroke-width="4" stroke-linecap="round"/>
<path d="M1085.83 311.506C1086.66 303.972 1090.99 302.38 1095.63 302.38C1100.37 302.38 1104.76 304.83 1105.18 311.506C1105.77 320.378 1105.77 338.883 1105.18 348.092C1104.76 354.514 1101.04 358.145 1095.47 358.145C1089.81 358.145 1087.15 354.588 1085.92 348.341C1085.35 345.471 1085.56 313.938 1085.83 311.506Z" fill="#1C1C1C" stroke="#F3A2A9" stroke-width="4" stroke-linecap="round" stroke-linejoin="round"/>
<path d="M1089.2 336.341C1088.2 336.721 1087.11 336.931 1085.97 336.931C1080.96 336.931 1076.89 332.867 1076.89 327.854C1076.89 322.84 1080.96 318.776 1085.97 318.776C1087.11 318.776 1088.2 318.986 1089.21 319.371" fill="#1C1C1C"/>
<path d="M1089.2 336.341C1088.2 336.721 1087.11 336.931 1085.97 336.931C1080.96 336.931 1076.89 332.867 1076.89 327.854C1076.89 322.84 1080.96 318.776 1085.97 318.776C1087.11 318.776 1088.2 318.986 1089.21 319.371" stroke="#F3A2A9" stroke-width="4" stroke-linecap="round" stroke-linejoin="round"/>
<path d="M1099.28 365.534C1091.63 364.454 1074.34 363.872 1063.9 365.394C1064.6 362.577 1064.68 359.537 1063.98 357.428C1063.06 354.672 1059.75 351.793 1054.16 352.099C1049.9 352.331 1046.15 355.162 1044.96 358.132C1043.56 361.654 1043.51 367.647 1044.19 372.04C1044.86 376.266 1046.44 380.544 1051.85 381.222C1060.21 382.237 1091.64 382.32 1098.57 381.305C1104.91 380.374 1107.3 376.178 1107.3 372.547C1107.31 369.17 1105.45 366.383 1099.28 365.534Z" fill="#1C1C1C" stroke="#F3A2A9" stroke-width="4" stroke-linecap="round" stroke-linejoin="round"/>
<path d="M1061.16 365.879C1062.01 365.7 1062.92 365.538 1063.9 365.394Z" fill="#1C1C1C"/>
<path d="M1061.16 365.879C1062.01 365.7 1062.92 365.538 1063.9 365.394" stroke="#F3A2A9" stroke-width="4" stroke-linecap="round" stroke-linejoin="round"/>
<path d="M1076.2 338.791C1073.68 336.779 1070.12 335.129 1066.75 334.093L1065.75 333.799C1065.75 333.799 1070.96 328.252 1072.24 326.332C1076.41 320.054 1075.58 312.363 1067.16 310.578C1064.32 309.974 1060.52 309.581 1054.12 309.55C1047.82 309.524 1041.3 310.408 1041.3 310.408C1035.81 311.252 1033.44 313.194 1033.44 317.508C1033.44 322.154 1035.81 324.013 1040.96 325.028C1042.82 325.4 1046.95 325.811 1051.23 325.448C1045.6 329.683 1036.76 337.75 1034.03 341.845C1031.92 344.973 1032.54 348.656 1034.71 350.887C1037.67 353.932 1043.1 352.882 1045.78 351.732C1047.7 350.905 1051.56 347.978 1054.96 345.021L1055.07 345.134C1057.89 348.656 1062.78 350.896 1066.4 352.178C1070.92 353.775 1076.44 352.733 1078.31 349.36C1079.81 346.644 1079.86 341.722 1076.2 338.791Z" fill="#1C1C1C" stroke="#F3A2A9" stroke-width="4" stroke-linecap="round" stroke-linejoin="round"/>
<path d="M1055.84 324.709C1054.35 325.081 1052.78 325.317 1051.24 325.448Z" fill="#1C1C1C"/>
<path d="M1055.84 324.709C1054.35 325.081 1052.78 325.317 1051.24 325.448" stroke="#F3A2A9" stroke-width="4" stroke-linecap="round" stroke-linejoin="round"/>
<path d="M1062.89 333.16C1063.97 333.34 1065.14 333.611 1066.34 333.965Z" fill="#1C1C1C"/>
<path d="M1062.89 333.16C1063.97 333.34 1065.14 333.611 1066.34 333.965" stroke="#F3A2A9" stroke-width="4" stroke-linecap="round" stroke-linejoin="round"/>
<path d="M1058.66 341.608C1057.64 342.632 1056.35 343.818 1054.96 345.016Z" fill="#1C1C1C"/>
<path d="M1058.66 341.608C1057.64 342.632 1056.35 343.818 1054.96 345.016" stroke="#F3A2A9" stroke-width="4" stroke-linecap="round" stroke-linejoin="round"/>
<path d="M1046.53 312.175C1045.52 310.941 1044.91 309.406 1044.91 307.748C1044.91 303.671 1048.54 300.368 1053.02 300.368C1057.5 300.368 1061.13 303.671 1061.13 307.748C1061.13 309.41 1060.53 310.941 1059.51 312.175" fill="#1C1C1C"/>
<path d="M1046.53 312.175C1045.52 310.941 1044.91 309.406 1044.91 307.748C1044.91 303.671 1048.54 300.368 1053.02 300.368C1057.5 300.368 1061.13 303.671 1061.13 307.748C1061.13 309.41 1060.53 310.941 1059.51 312.175" stroke="#F3A2A9" stroke-width="4" stroke-linecap="round" stroke-linejoin="round"/>
<path d="M999.012 360.582C998.517 356.57 994.912 354.12 991.513 353.665C991.028 353.595 990.529 353.556 990.026 353.56C984.387 353.626 979.863 358.25 979.929 363.889C979.951 365.976 980.729 367.826 981.696 369.515C985.948 376.939 998.176 382.211 1011.45 382.062C1026.46 381.891 1036.69 372.792 1038.39 359.409C1039.72 348.98 1034.78 341.154 1029.06 336.857C1031.81 334.583 1035.28 330.33 1035.56 323.239C1036.07 310.29 1025.56 301.96 1011.3 301.4C998.692 300.901 987.366 305.578 983.127 312.521C982.226 313.999 981.486 315.636 981.412 317.495C981.215 322.535 985.135 326.778 990.17 326.975C990.621 326.992 991.063 326.962 991.5 326.922C994.549 326.599 997.165 324.766 998.565 322.163C1003.33 317.753 1007.59 317.67 1010.99 317.967C1015.25 318.343 1018.81 321.905 1018.7 324.805C1018.57 328.064 1016.86 330.037 1014.17 330.746C1010.68 330.112 1007.97 330.042 1007.07 330.072C1003.91 330.19 1001.05 331.433 999.248 333.8C999.182 333.887 999.117 333.97 999.051 334.058C998.001 335.541 997.349 337.339 997.27 339.303C997.06 344.605 1001.11 349.072 1006.32 349.277C1006.33 349.277 1006.35 349.277 1006.37 349.277C1006.84 349.295 1007.3 349.269 1007.75 349.216C1012.33 349.164 1019.66 352.375 1019.29 357.69C1019.04 361.308 1016.1 364.344 1011.61 364.615C1008.03 364.834 1003.09 364.598 998.211 359.821" fill="#1C1C1C"/>
<path d="M999.012 360.582C998.517 356.57 994.912 354.12 991.513 353.665C991.028 353.595 990.529 353.556 990.026 353.56C984.387 353.626 979.863 358.25 979.929 363.889C979.951 365.976 980.729 367.826 981.696 369.515C985.948 376.939 998.176 382.211 1011.45 382.062C1026.46 381.891 1036.69 372.792 1038.39 359.409C1039.72 348.98 1034.78 341.154 1029.06 336.857C1031.81 334.583 1035.28 330.33 1035.56 323.239C1036.07 310.29 1025.56 301.96 1011.3 301.4C998.692 300.901 987.366 305.578 983.127 312.521C982.226 313.999 981.486 315.636 981.412 317.495C981.215 322.535 985.135 326.778 990.17 326.975C990.621 326.992 991.063 326.962 991.5 326.922C994.549 326.599 997.165 324.766 998.565 322.163C1003.33 317.753 1007.59 317.67 1010.99 317.967C1015.25 318.343 1018.81 321.905 1018.7 324.805C1018.57 328.064 1016.86 330.037 1014.17 330.746C1010.68 330.112 1007.97 330.042 1007.07 330.072C1003.91 330.19 1001.05 331.433 999.248 333.8C999.182 333.887 999.117 333.97 999.051 334.058C998.001 335.541 997.349 337.339 997.27 339.303C997.06 344.605 1001.11 349.072 1006.32 349.277C1006.33 349.277 1006.35 349.277 1006.37 349.277C1006.84 349.295 1007.3 349.269 1007.75 349.216C1012.33 349.164 1019.66 352.375 1019.29 357.69C1019.04 361.308 1016.1 364.344 1011.61 364.615C1008.03 364.834 1003.09 364.598 998.211 359.821" stroke="#F3A2A9" stroke-width="4" stroke-linecap="round" stroke-linejoin="round"/>
<path d="M1007.69 349.225C1010.84 348.884 1013.54 346.955 1014.99 344.207Z" fill="#1C1C1C"/>
<path d="M1007.69 349.225C1010.84 348.884 1013.54 346.955 1014.99 344.207" stroke="#F3A2A9" stroke-width="4" stroke-linecap="round" stroke-linejoin="round"/>
<path d="M998.517 322.246C999.152 321.064 999.541 319.73 999.598 318.299Z" fill="#1C1C1C"/>
<path d="M998.517 322.246C999.152 321.064 999.541 319.73 999.598 318.299" stroke="#F3A2A9" stroke-width="4" stroke-linecap="round" stroke-linejoin="round"/>
<path d="M1024.95 334.609C1024.95 334.609 1027.73 335.777 1029.06 336.857Z" fill="#1C1C1C"/>
<path d="M1024.95 334.609C1024.95 334.609 1027.73 335.777 1029.06 336.857" stroke="#F3A2A9" stroke-width="4" stroke-linecap="round" stroke-linejoin="round"/>
</g>
<mask id="mask1_5_122" style="mask-type:alpha" maskUnits="userSpaceOnUse" x="0" y="0" width="1920" height="480">
<rect width="1920" height="480" fill="#C4C4C4"/>
</mask>
<g mask="url(#mask1_5_122)">
</g>
<defs>
<filter id="filter0_f_5_122" x="716.27" y="154.451" width="488.732" height="349.575" filterUnits="userSpaceOnUse" color-interpolation-filters="sRGB">
<feFlood flood-opacity="0" result="BackgroundImageFix"/>
<feBlend mode="normal" in="SourceGraphic" in2="BackgroundImageFix" result="shape"/>
<feGaussianBlur stdDeviation="40" result="effect1_foregroundBlur_5_122"/>
</filter>
<filter id="filter1_f_5_122" x="705.178" y="1.17767" width="508.899" height="332.433" filterUnits="userSpaceOnUse" color-interpolation-filters="sRGB">
<feFlood flood-opacity="0" result="BackgroundImageFix"/>
<feBlend mode="normal" in="SourceGraphic" in2="BackgroundImageFix" result="shape"/>
<feGaussianBlur stdDeviation="40" result="effect1_foregroundBlur_5_122"/>
</filter>
<linearGradient id="paint0_linear_5_122" x1="897.392" y1="225.211" x2="899.518" y2="229.043" gradientUnits="userSpaceOnUse">
<stop stop-color="#F3A2A9"/>
<stop offset="1" stop-color="#F3A2A9"/>
</linearGradient>
<linearGradient id="paint1_linear_5_122" x1="965.74" y1="255.965" x2="968.664" y2="261.236" gradientUnits="userSpaceOnUse">
<stop stop-color="#F3A2A9"/>
<stop offset="1" stop-color="#F3A2A9"/>
</linearGradient>
<linearGradient id="paint2_linear_5_122" x1="984.765" y1="255.374" x2="987.816" y2="260.874" gradientUnits="userSpaceOnUse">
<stop stop-color="#F3A2A9"/>
<stop offset="1" stop-color="#F3A2A9"/>
</linearGradient>
<linearGradient id="paint3_linear_5_122" x1="1001.7" y1="246.856" x2="1002.93" y2="249.074" gradientUnits="userSpaceOnUse">
<stop stop-color="#F3A2A9"/>
<stop offset="1" stop-color="#F3A2A9"/>
</linearGradient>
<linearGradient id="paint4_linear_5_122" x1="968.032" y1="167.82" x2="971.385" y2="173.866" gradientUnits="userSpaceOnUse">
<stop stop-color="#F3A2A9"/>
<stop offset="1" stop-color="#F3A2A9"/>
</linearGradient>
<linearGradient id="paint5_linear_5_122" x1="992.343" y1="166.461" x2="992.367" y2="166.504" gradientUnits="userSpaceOnUse">
<stop stop-color="#F3A2A9"/>
<stop offset="1" stop-color="#F3A2A9"/>
</linearGradient>
<linearGradient id="paint6_linear_5_122" x1="1001.92" y1="161.161" x2="1007.43" y2="171.094" gradientUnits="userSpaceOnUse">
<stop stop-color="#F3A2A9"/>
<stop offset="1" stop-color="#F3A2A9"/>
</linearGradient>
<linearGradient id="paint7_linear_5_122" x1="1044.29" y1="215.742" x2="1045.42" y2="217.778" gradientUnits="userSpaceOnUse">
<stop stop-color="#F3A2A9"/>
<stop offset="1" stop-color="#F3A2A9"/>
</linearGradient>
<linearGradient id="paint8_linear_5_122" x1="1018.87" y1="166.221" x2="1019.09" y2="166.611" gradientUnits="userSpaceOnUse">
<stop stop-color="#F3A2A9"/>
<stop offset="1" stop-color="#F3A2A9"/>
</linearGradient>
<linearGradient id="paint9_linear_5_122" x1="1048.38" y1="206.771" x2="1049.84" y2="209.391" gradientUnits="userSpaceOnUse">
<stop stop-color="#F3A2A9"/>
<stop offset="1" stop-color="#F3A2A9"/>
</linearGradient>
<linearGradient id="paint10_linear_5_122" x1="1043.48" y1="194.111" x2="1044.02" y2="195.087" gradientUnits="userSpaceOnUse">
<stop stop-color="#F3A2A9"/>
<stop offset="1" stop-color="#F3A2A9"/>
</linearGradient>
</defs>
</svg>
