<svg width="1920" height="480" viewBox="0 0 1920 480" fill="none" xmlns="http://www.w3.org/2000/svg">
<mask id="mask0_1161_1064" style="mask-type:alpha" maskUnits="userSpaceOnUse" x="0" y="0" width="1920" height="480">
<rect width="1920" height="480" fill="#C4C4C4"/>
</mask>
<g mask="url(#mask0_1161_1064)">
<g opacity="0.1">
<path d="M372.496 263.057C335.731 171.024 245.763 106 140.608 106C2.75351 106 -109 217.753 -109 355.608C-109 398.776 -98.0419 439.384 -78.7557 474.803" stroke="#F5F5F5" stroke-width="4" stroke-linecap="round"/>
<path d="M142.75 176.115C124.949 176.115 107.755 178.489 91.5281 182.909M55.0684 197.05C16.0851 217.107 -13.829 250.126 -27.6568 289.7" stroke="#F5F5F5" stroke-width="4" stroke-linecap="round"/>
<path d="M283.643 302.034C314.476 277.628 353.449 263.057 395.826 263.057C455.886 263.057 509.109 292.326 542.01 337.378" stroke="#F5F5F5" stroke-width="4" stroke-linecap="round"/>
<path d="M647.166 276.344C658.606 265.06 673.79 257.41 691.003 255.528C706.35 253.849 721.113 256.996 733.779 263.754M753.684 279.223C750.623 275.868 747.262 272.804 743.649 270.068" stroke="#F5F5F5" stroke-width="4" stroke-linecap="round"/>
<path d="M886.629 366.827C886.629 261.499 801.14 176.115 695.683 176.115C610.348 176.115 538.908 229.73 514.44 306.875" stroke="#F5F5F5" stroke-width="4" stroke-linecap="round"/>
<path d="M934.418 381.707C934.418 243.852 1046.17 132.099 1184.03 132.099C1289.18 132.099 1379.15 197.123 1415.91 289.156" stroke="#F5F5F5" stroke-width="4" stroke-linecap="round"/>
<path d="M1186.17 202.213C1168.37 202.213 1151.17 204.587 1134.95 209.008M1098.49 223.148C1059.5 243.205 1029.59 276.224 1015.76 315.799" stroke="#F5F5F5" stroke-width="4" stroke-linecap="round"/>
<path d="M1327.06 328.133C1357.89 303.727 1396.87 289.156 1439.24 289.156C1499.3 289.156 1552.53 318.425 1585.43 363.477" stroke="#F5F5F5" stroke-width="4" stroke-linecap="round"/>
<path d="M1690.58 302.443C1702.02 291.159 1717.21 283.509 1734.42 281.627C1749.77 279.948 1764.53 283.095 1777.2 289.853M1797.1 305.322C1794.04 301.967 1790.68 298.903 1787.07 296.167" stroke="#F5F5F5" stroke-width="4" stroke-linecap="round"/>
<path d="M1930.05 392.925C1930.05 287.598 1844.56 202.213 1739.1 202.213C1653.77 202.213 1582.33 255.828 1557.86 332.974" stroke="#F5F5F5" stroke-width="4" stroke-linecap="round"/>
<path d="M1893.59 411.156C1905.42 399.862 1921.45 392.926 1939.09 392.926C1975.49 392.926 2005 422.434 2005 458.834C2005 467.775 2003.22 476.301 1999.99 484.075" stroke="#F5F5F5" stroke-width="4" stroke-linecap="round"/>
</g>
</g>
</svg>
