<svg width="73" height="40" viewBox="0 0 73 40" fill="none" xmlns="http://www.w3.org/2000/svg">
<path d="M36.3134 36.4583C36.2319 36.4016 36.1256 36.3237 36.0015 36.2315C35.6684 35.9905 35.1899 35.6326 34.6052 35.1718C33.4356 34.2539 31.8372 32.9355 30.1325 31.3265C26.716 28.0979 22.9097 23.7351 21.2192 19.1278C20.6698 17.6109 20.3544 16.0763 20.3544 14.5524C20.3544 10.2251 22.9593 6.98223 26.2057 5.81623C29.4379 4.65731 33.3435 5.54688 36.0051 9.58358L36.3028 10.0337L36.5969 9.58358C39.2621 5.54688 43.1677 4.65731 46.3963 5.81623C49.6462 6.98223 52.2511 10.2251 52.2511 14.5524C52.2511 16.0763 51.9357 17.6109 51.3864 19.1278C49.6923 23.7351 45.8931 28.0979 42.4801 31.3265C40.7789 32.9355 39.1841 34.2539 38.0181 35.1718C37.4333 35.629 36.9549 35.987 36.6253 36.228C36.4977 36.3237 36.3949 36.3981 36.3134 36.4583Z" fill="#EE624C"/>
<path d="M36.3134 36.8942L36.1078 36.7454C36.0263 36.6851 35.92 36.6107 35.7924 36.5185C35.3459 36.1889 34.871 35.831 34.389 35.4518C33.3187 34.6118 31.6671 33.2615 29.8915 31.5852C26.7656 28.6294 22.6651 24.093 20.886 19.2518C20.2977 17.6251 20 16.0444 20 14.5523C20 10.3703 22.3887 6.80852 26.0887 5.48303C29.0728 4.41272 33.3257 4.877 36.3028 9.38861C39.2798 4.877 43.5327 4.41272 46.5168 5.48303C50.2168 6.80852 52.6055 10.3668 52.6055 14.5523C52.6055 16.0408 52.3078 17.6215 51.7195 19.2482C49.9404 24.093 45.847 28.6294 42.7246 31.5852C40.9597 33.258 39.3081 34.6118 38.2343 35.4518C37.7594 35.8239 37.2845 36.1854 36.8308 36.515C36.7032 36.6071 36.5969 36.6851 36.5154 36.7418L36.3134 36.8942ZM28.8779 5.69213C28.0663 5.69213 27.2122 5.8339 26.3226 6.15286C22.9132 7.37557 20.7088 10.6716 20.7088 14.5523C20.7088 15.9593 20.9923 17.4585 21.5523 19.0072C23.2818 23.7173 27.3079 28.1651 30.3771 31.0677C32.1314 32.7264 33.7617 34.0625 34.8213 34.8918C35.2998 35.2675 35.7676 35.6183 36.2071 35.9444L36.3099 36.0188C36.3418 35.994 36.3772 35.9692 36.4126 35.9444C36.8592 35.6148 37.327 35.2639 37.7948 34.8954C38.8545 34.0625 40.4883 32.7264 42.232 31.0713C45.2976 28.1687 49.3166 23.7209 51.0497 19.0072C51.6096 17.4585 51.8932 15.9593 51.8932 14.5523C51.8932 10.6716 49.6888 7.37557 46.2758 6.15286C42.108 4.66081 38.695 7.04952 36.8911 9.782L36.3028 10.6751L35.7109 9.77846C34.2933 7.6272 31.8762 5.69213 28.8779 5.69213Z" fill="white"/>
<path d="M29.1083 24.4014L29.1048 24.3766C28.2506 24.5502 27.3469 24.1639 26.9039 23.3629C26.3546 22.3741 26.7125 21.1266 27.7013 20.5773C27.9033 20.4639 28.116 20.3895 28.3322 20.3505L27.96 20.3257C27.6198 20.1449 27.3221 19.8685 27.1236 19.507C26.5743 18.5182 26.9323 17.2707 27.921 16.7213C28.4349 16.4343 29.0268 16.3811 29.5442 16.5619C29.9695 16.7143 30.5862 16.9765 31.1603 17.4443C31.8018 17.9689 32.142 18.1319 32.6666 18.1921C33.0352 18.2347 33.2336 18.263 33.4108 18.2028C33.6235 18.1283 33.8503 17.9972 33.8893 17.7952C33.9318 17.5826 33.8893 17.4798 33.705 17.3345C33.5668 17.2246 32.9997 17.1183 32.7835 17.0155C32.5851 16.9198 32.4468 16.7178 32.3334 16.5122C31.9294 15.7822 32.1917 14.8642 32.9217 14.4602C33.2868 14.2582 33.6979 14.2228 34.07 14.3291L34.0807 14.3504C34.0807 14.0456 34.1586 13.7372 34.3146 13.475C34.7328 12.7626 35.6542 12.4047 36.4587 12.596C36.799 12.6775 37.1215 12.8583 37.3625 13.1135L37.2491 12.8937C37.2491 12.3373 37.5432 11.7951 38.0678 11.508C38.8333 11.0827 39.8008 11.3591 40.2226 12.1247C40.3572 12.3692 40.3608 12.6811 40.3608 12.9398L40.3537 12.9434L40.3608 12.9469C41.3248 12.5996 42.3951 12.5783 43.3803 12.8583C43.4512 12.8796 43.5221 12.9008 43.5894 12.9221C43.6142 12.9292 43.6355 12.9363 43.6603 12.9469C43.8907 13.0284 44.114 13.1241 44.3301 13.2375C45.5068 13.8577 46.4176 14.9528 46.8535 16.2074C47.3462 15.9346 47.9628 16.1118 48.2357 16.6044C48.5086 17.097 48.3314 17.7137 47.8388 17.9866C47.7892 18.0149 47.736 18.0397 47.6828 18.0575C48.0054 18.2028 48.179 18.5643 48.0798 18.9151C47.9699 19.2979 47.5694 19.5212 47.1867 19.4113C47.0662 19.3759 46.9634 19.3156 46.8783 19.2341L46.935 19.3156C46.5735 20.6765 45.6804 21.8957 44.3549 22.6329C43.5823 23.0617 42.753 23.2779 41.9273 23.3027L41.6863 23.0582C41.7217 23.1042 41.7536 23.1574 41.7855 23.2106C42.1222 23.8201 41.9024 24.5892 41.2929 24.9259C40.74 25.2342 40.0524 25.0783 39.6768 24.5892C39.6201 24.9613 39.3968 25.3051 39.0424 25.5036C38.4328 25.8403 37.6637 25.6205 37.327 25.0109C37.2243 25.1385 36.9159 25.3902 36.7635 25.4752C36.1539 25.8119 35.3601 25.6063 35.0482 24.9826C34.6442 24.1745 35.3424 23.5898 35.3778 23.2743C35.4061 23.0121 35.3884 22.8455 35.1581 22.6896C35.0765 22.6329 34.8426 22.601 34.6371 22.647C34.4315 22.6931 34.2401 22.7994 34.0948 22.9518C33.3683 23.7174 33.0812 24.4758 32.8828 25.8367C32.8119 26.3223 32.5213 26.7653 32.096 27.0807C31.1887 27.7576 29.9057 27.5662 29.2288 26.6589C28.7256 25.9856 28.7043 25.0925 29.1083 24.4014Z" fill="#F2B458"/>
<path d="M28.3605 20.3575L29.3493 20.4249C29.0339 20.3221 28.6937 20.2973 28.3605 20.3575Z" fill="url(#paint0_linear_1157_8803)"/>
<path d="M37.2313 24.7097L37.3518 23.7988C37.1994 24.0717 37.1533 24.3978 37.2313 24.7097Z" fill="url(#paint1_linear_1157_8803)"/>
<path d="M39.5633 23.7917L39.7086 24.5927C39.7476 24.3304 39.7051 24.0469 39.5633 23.7917Z" fill="url(#paint2_linear_1157_8803)"/>
<path d="M41.4877 22.8313L41.7145 23.0617C41.6472 22.9766 41.5728 22.8987 41.4877 22.8313Z" fill="url(#paint3_linear_1157_8803)"/>
<path d="M37.3837 13.1169L37.7736 13.8718C37.724 13.5848 37.5822 13.3296 37.3837 13.1169Z" fill="url(#paint4_linear_1157_8803)"/>
<path d="M40.3749 12.9472L40.3828 12.9512C40.3828 12.9472 40.3828 12.9472 40.3828 12.9433C40.3789 12.9433 40.3749 12.9472 40.3749 12.9472Z" fill="url(#paint5_linear_1157_8803)"/>
<path d="M40.382 12.9433V12.9468C41.346 12.5995 42.4163 12.5783 43.4016 12.8582C42.4163 12.5818 41.346 12.596 40.382 12.9433Z" fill="url(#paint6_linear_1157_8803)"/>
<path d="M46.7436 18.9966C46.7791 19.0852 46.8358 19.1667 46.9031 19.2341L46.7436 18.9966Z" fill="url(#paint7_linear_1157_8803)"/>
<path d="M43.6107 12.9291C43.6355 12.9362 43.6568 12.9433 43.6816 12.9539C43.6603 12.9433 43.6355 12.9362 43.6107 12.9291Z" fill="url(#paint8_linear_1157_8803)"/>
<path d="M47.7076 18.061L46.9846 18.0433C47.2079 18.1354 47.4666 18.1461 47.7076 18.061Z" fill="url(#paint9_linear_1157_8803)"/>
<path d="M46.4955 16.5831L46.8748 16.2145C46.7153 16.3066 46.5842 16.4342 46.4955 16.5831Z" fill="url(#paint10_linear_1157_8803)"/>
<path d="M41.2335 21.7543C41.1059 21.5665 40.9819 21.3751 40.8685 21.1802C40.2235 20.0886 39.7946 18.9013 39.5926 17.6538C39.4225 16.5941 39.419 15.5167 39.5855 14.4535C39.6174 14.2586 39.4828 14.0778 39.2914 14.0495C39.0965 14.0211 38.9157 14.1523 38.8874 14.3436C38.7456 15.2403 38.7208 16.144 38.8058 17.0442C38.4975 16.906 38.1856 16.8139 37.8808 16.7961C37.5371 16.7749 37.1614 16.8387 36.8176 16.9769C36.3604 17.1612 35.9493 17.4943 35.6658 17.9161C35.3433 18.3945 35.2688 18.9899 35.4673 19.4719C35.6126 19.8157 35.8997 20.0744 36.2293 20.202C35.9245 20.8399 35.9316 21.5984 36.286 22.2363C36.6936 22.9699 37.4414 23.3846 38.2175 23.3846C38.5471 23.3846 38.8803 23.3066 39.1992 23.1542L39.2134 23.1471C39.217 23.1436 39.224 23.1436 39.2276 23.14L39.2914 23.1117C39.8549 22.8565 40.2625 22.5234 40.5779 22.0485C40.6027 22.0839 40.624 22.1229 40.6452 22.1583C40.7126 22.2576 40.826 22.3143 40.9394 22.3143C41.0067 22.3143 41.0776 22.293 41.1378 22.254C41.3044 22.1371 41.3469 21.9138 41.2335 21.7543ZM39.0149 22.456H38.9441L38.8874 22.5127C38.8377 22.534 38.7881 22.5517 38.735 22.573C38.7314 22.573 38.7314 22.5765 38.7314 22.5765C38.0509 22.8175 37.2677 22.5411 36.9098 21.8925C36.5979 21.3326 36.6758 20.6379 37.1011 20.1595C37.2145 20.0319 37.3457 19.9256 37.4981 19.844C37.6682 19.7484 37.732 19.5322 37.6363 19.3621C37.5406 19.1919 37.3244 19.1281 37.1543 19.2238C36.9842 19.3195 36.8318 19.44 36.6936 19.5747C36.4738 19.5853 36.2257 19.4365 36.1265 19.2026C36.0166 18.9439 36.0698 18.593 36.2576 18.3165C36.4597 18.0153 36.7644 17.7708 37.087 17.6396C37.335 17.5404 37.6008 17.4943 37.8418 17.5085C38.1856 17.5298 38.5755 17.6857 38.9263 17.9267C39.139 19.1352 39.5536 20.2906 40.1597 21.3645C39.8939 21.8854 39.5607 22.2044 39.0149 22.456Z" fill="#EDA53C"/>
<path d="M34.4882 21.209C34.2543 20.7802 34.1054 20.3159 34.0416 19.8339C34.0204 19.6638 34.0026 19.4441 34.0771 19.2846C34.1586 19.1074 34.0842 18.8948 33.9069 18.8132C33.7297 18.7317 33.5206 18.8062 33.4356 18.9834C33.2832 19.3059 33.3045 19.6567 33.3399 19.9225C33.4143 20.4931 33.5915 21.0389 33.8644 21.5457C33.9318 21.6662 34.0026 21.7867 34.0771 21.9001C34.1444 22.0029 34.2578 22.0596 34.3712 22.0596C34.4386 22.0596 34.5059 22.0419 34.5661 21.9994C34.7292 21.8895 34.7717 21.6698 34.6654 21.5067C34.6051 21.4111 34.5449 21.3118 34.4882 21.209Z" fill="#EDA53C"/>
<path d="M48.5688 16.4378C48.3916 16.1188 48.101 15.8849 47.7466 15.7856C47.5233 15.7218 47.2965 15.7218 47.0767 15.7715C46.5699 14.5558 45.6556 13.5316 44.5179 12.9327C44.2875 12.8122 44.0466 12.7058 43.8056 12.6208C43.7772 12.6101 43.7488 12.5995 43.724 12.5924C43.6496 12.5676 43.5716 12.5428 43.4972 12.5215C42.5828 12.2593 41.6082 12.2451 40.7116 12.4755C40.6903 12.3018 40.6442 12.1211 40.5521 11.9545C40.3005 11.5008 39.8893 11.1712 39.3896 11.0295C38.8899 10.8877 38.3689 10.948 37.9153 11.1996C37.4368 11.4654 37.1108 11.9013 36.9867 12.4117C36.8521 12.3479 36.7103 12.2912 36.5615 12.2557C35.5868 12.0254 34.5236 12.4648 34.031 13.3012C33.9176 13.4926 33.8431 13.7053 33.7971 13.9285C33.4427 13.9037 33.0918 13.9817 32.7728 14.1554C31.8726 14.6551 31.5501 15.7892 32.0463 16.6894C32.1703 16.9162 32.3546 17.1926 32.6523 17.3379C32.7764 17.3982 32.95 17.4478 33.1343 17.501C33.2584 17.5364 33.4675 17.5967 33.51 17.6215C33.5525 17.6534 33.5703 17.6711 33.5738 17.6711C33.5738 17.6782 33.5738 17.6959 33.5667 17.7278C33.5596 17.7455 33.4923 17.8129 33.3151 17.8766C33.23 17.905 33.0634 17.8873 32.8118 17.8589L32.7303 17.8483C32.3192 17.8022 32.0463 17.6994 31.4084 17.1749C30.9264 16.7851 30.3487 16.4661 29.6895 16.2322C29.0764 16.016 28.3782 16.0833 27.7792 16.4165C26.6203 17.058 26.2021 18.5252 26.8436 19.6841C26.9783 19.9287 27.1945 20.1626 27.4284 20.354C26.3722 21.0309 26.0072 22.4272 26.6239 23.5401C27.035 24.2843 27.7899 24.7309 28.605 24.7699C28.3959 25.4822 28.5199 26.2655 28.9771 26.8786C29.3599 27.3925 29.9198 27.7292 30.5578 27.8213C30.6747 27.8391 30.7952 27.8461 30.9122 27.8461C31.4261 27.8461 31.9223 27.6831 32.344 27.3712C32.8579 26.9885 33.1875 26.464 33.269 25.8934C33.4675 24.536 33.7404 23.8839 34.3854 23.1999C34.4775 23.1006 34.6087 23.0297 34.7185 23.0014C34.8497 22.9837 34.995 23.0085 35.041 23.0545C35.0729 23.09 35.0623 23.1821 35.0552 23.2282C35.0446 23.2636 34.9879 23.3664 34.9418 23.4409C34.7327 23.7988 34.3854 24.3978 34.7575 25.142C34.9454 25.5177 35.2714 25.7906 35.6825 25.9182C36.1078 26.0493 36.5756 25.9997 36.9655 25.7835C37.0789 25.7197 37.1888 25.6453 37.3163 25.5319C37.5077 25.7268 37.7452 25.8756 38.0145 25.9536C38.1634 25.9961 38.3122 26.0174 38.4611 26.0174C38.7304 26.0174 38.9998 25.9501 39.2443 25.8118C39.5101 25.663 39.7228 25.4503 39.8645 25.1952C40.1197 25.3511 40.4174 25.4326 40.7151 25.4326C40.9809 25.4326 41.2503 25.3688 41.4948 25.2306C41.874 25.0215 42.1469 24.6777 42.2639 24.2631C42.3241 24.054 42.3419 23.8378 42.317 23.6287C43.0967 23.5543 43.8658 23.3168 44.5534 22.9376C45.815 22.2394 46.7365 21.1195 47.1902 19.7621C47.2646 19.7763 47.339 19.7869 47.4134 19.7869C47.5942 19.7869 47.7714 19.7408 47.9344 19.6522C48.186 19.514 48.3668 19.2836 48.4483 19.0072C48.5404 18.6882 48.4767 18.3586 48.2994 18.0999C48.7495 17.6924 48.8807 17.0013 48.5688 16.4378ZM47.7643 18.8229C47.7359 18.9186 47.6757 18.9966 47.5906 19.0426C47.5056 19.0887 47.4063 19.1029 47.3106 19.0745C47.2504 19.0568 47.1972 19.0285 47.1547 18.9824C47.1193 18.947 47.0909 18.908 47.0732 18.8619C46.9988 18.6812 46.7897 18.5961 46.6089 18.6705C46.4282 18.7449 46.3431 18.954 46.4175 19.1348C46.4565 19.2269 46.5097 19.3085 46.5699 19.3864C46.1943 20.6446 45.3614 21.6865 44.2096 22.328C43.5397 22.7001 42.8168 22.9022 42.0583 22.9447C42.0371 22.9128 42.0193 22.8809 41.9981 22.8525C41.9166 22.7427 41.8173 22.6434 41.7075 22.5584C41.5551 22.4379 41.3318 22.4627 41.2113 22.6186C41.0908 22.771 41.1156 22.9943 41.2715 23.1148C41.3318 23.1644 41.3885 23.2211 41.4346 23.2814C41.4594 23.3168 41.4842 23.3523 41.5054 23.3912C41.6224 23.6039 41.6508 23.8484 41.5834 24.0823C41.5161 24.3162 41.3637 24.5076 41.151 24.6281C40.7966 24.8266 40.3536 24.7557 40.0701 24.4757C40.0807 24.1816 40.0169 23.891 39.8716 23.6287C39.7759 23.4586 39.5597 23.3948 39.3896 23.4905C39.2195 23.5862 39.1557 23.8023 39.2514 23.9725C39.3506 24.1497 39.3861 24.3517 39.3542 24.5501C39.3117 24.8301 39.1451 25.0711 38.897 25.2058C38.6844 25.3228 38.4398 25.3511 38.2059 25.2838C37.972 25.2164 37.7806 25.064 37.6601 24.8514C37.6211 24.7805 37.5928 24.7061 37.5715 24.6281C37.5148 24.4048 37.5467 24.1745 37.6566 23.9725C37.7523 23.8023 37.6885 23.5862 37.5184 23.4905C37.3482 23.3983 37.1321 23.4586 37.0364 23.6287C36.8379 23.9866 36.7847 24.4013 36.884 24.7982C36.8946 24.8443 36.9123 24.8868 36.9265 24.9294C36.7883 25.0711 36.6997 25.1278 36.6146 25.1739C36.3913 25.2979 36.1255 25.3263 35.8845 25.2483C35.6613 25.181 35.4841 25.0321 35.3848 24.8337C35.197 24.4615 35.3352 24.1709 35.5478 23.8059C35.6471 23.6358 35.7321 23.4905 35.7463 23.3416C35.8101 22.9447 35.6648 22.7001 35.5337 22.569C35.2218 22.25 34.7433 22.289 34.5768 22.3138C34.3003 22.3776 34.0452 22.5229 33.8573 22.7214C33.1024 23.5188 32.7728 24.295 32.5531 25.8012C32.4964 26.1804 32.2625 26.549 31.9045 26.8148C31.543 27.0842 31.0965 27.1976 30.6464 27.1338C30.1998 27.0664 29.8029 26.8325 29.5335 26.4675C29.1472 25.9465 29.0941 25.2554 29.3882 24.6848C29.5584 24.6352 29.7214 24.575 29.8773 24.4864C30.3983 24.1957 30.7917 23.7279 30.9866 23.1609C31.0504 22.9766 30.9512 22.7746 30.7669 22.7108C30.5826 22.647 30.3806 22.7462 30.3168 22.9305C30.1821 23.3274 29.9021 23.6606 29.5335 23.8626C29.3811 23.9477 29.2181 24.0079 29.048 24.0433C28.3215 24.1922 27.5878 23.8555 27.2263 23.2034C26.7727 22.3847 27.0704 21.3534 27.8855 20.8997C28.0486 20.8076 28.2258 20.7474 28.4101 20.7119C28.6794 20.6623 28.9629 20.6836 29.2288 20.7686C29.413 20.8289 29.6151 20.7261 29.6753 20.5383C29.7356 20.3504 29.6328 20.1519 29.4449 20.0917C29.0693 19.9712 28.6688 19.9464 28.286 20.0137C28.2506 20.0208 28.2151 20.035 28.1797 20.0421C27.9068 19.8791 27.5949 19.6062 27.4496 19.3474C26.996 18.5288 27.2937 17.4974 28.1088 17.0438C28.5341 16.8099 29.0197 16.7603 29.4414 16.9091C30.0262 17.1147 30.533 17.3947 30.9512 17.7349C31.6423 18.2984 32.0392 18.4933 32.6417 18.5607L32.7232 18.5713C33.0741 18.6138 33.3044 18.6386 33.5454 18.5536C34.0558 18.3728 34.2117 18.0893 34.2543 17.8837C34.3251 17.54 34.2295 17.299 33.9388 17.0721C33.8148 16.9729 33.6234 16.9162 33.3222 16.8311C33.1875 16.7922 33.0209 16.7461 32.9536 16.7142C32.8331 16.6539 32.7268 16.4838 32.6559 16.3598C32.507 16.0904 32.4716 15.7786 32.5566 15.4808C32.6417 15.1831 32.8366 14.9386 33.106 14.7898C33.308 14.6799 33.5313 14.6303 33.7545 14.648C33.8183 15.1938 34.0806 15.6899 34.4882 16.0125C34.552 16.0656 34.6299 16.0904 34.7079 16.0904C34.8107 16.0904 34.917 16.0444 34.9843 15.9558C35.1048 15.8034 35.08 15.5801 34.9276 15.456C34.6228 15.2115 34.4421 14.8075 34.4456 14.368C34.4456 14.1128 34.5094 13.8718 34.6299 13.6698C34.9631 13.1028 35.718 12.7944 36.3842 12.9539C36.6607 13.0213 36.9194 13.1666 37.1143 13.3686C37.2738 13.5387 37.3766 13.7336 37.412 13.9356C37.4439 14.127 37.6247 14.2617 37.8196 14.2262C38.011 14.1943 38.1421 14.0101 38.1102 13.8187C38.0535 13.4749 37.8869 13.1488 37.6282 12.8795C37.6282 12.8795 37.6282 12.8795 37.6247 12.876C37.6247 12.4329 37.8515 12.0431 38.2449 11.8234C38.532 11.6639 38.8651 11.6249 39.1805 11.717C39.496 11.8092 39.7582 12.0147 39.9177 12.3054C40.0134 12.479 40.0134 12.7484 40.0134 12.9539C40.0134 13.0709 40.0701 13.1772 40.1658 13.2445C40.2615 13.3119 40.382 13.326 40.4883 13.2871C41.3672 12.9716 42.3631 12.9397 43.2952 13.2091C43.359 13.2268 43.4228 13.2481 43.4937 13.2693L43.5539 13.2906C43.7701 13.365 43.9792 13.4572 44.1741 13.56C45.1842 14.0951 45.9923 15.013 46.4353 16.1011C46.336 16.1897 46.251 16.2924 46.1801 16.4059C46.0809 16.5724 46.134 16.7922 46.3041 16.8914C46.4707 16.9906 46.6904 16.9375 46.7897 16.7674C46.8499 16.6646 46.9314 16.5866 47.0378 16.5299C47.1937 16.4448 47.3709 16.4236 47.541 16.4732C47.7111 16.5228 47.8529 16.6327 47.938 16.7886C48.1152 17.1076 47.9982 17.5116 47.6792 17.6888C47.6473 17.7065 47.6119 17.7207 47.5765 17.7349C47.4241 17.788 47.2575 17.7845 47.1051 17.7207C46.9243 17.6463 46.7188 17.7313 46.6444 17.9121C46.5699 18.0928 46.655 18.2984 46.8357 18.3728C47.0023 18.4437 47.1831 18.4756 47.3603 18.4756C47.4524 18.4756 47.5446 18.4614 47.6332 18.4437C47.7501 18.5358 47.8033 18.6812 47.7643 18.8229Z" fill="#FFDFB1"/>
<defs>
<linearGradient id="paint0_linear_1157_8803" x1="28.7237" y1="20.1556" x2="28.9846" y2="20.626" gradientUnits="userSpaceOnUse">
<stop stop-color="#DEA6A9"/>
<stop offset="1" stop-color="#DEA6A9"/>
</linearGradient>
<linearGradient id="paint1_linear_1157_8803" x1="37.1124" y1="23.9299" x2="37.4712" y2="24.5767" gradientUnits="userSpaceOnUse">
<stop stop-color="#DEA6A9"/>
<stop offset="1" stop-color="#DEA6A9"/>
</linearGradient>
<linearGradient id="paint2_linear_1157_8803" x1="39.4473" y1="23.8575" x2="39.8217" y2="24.5324" gradientUnits="userSpaceOnUse">
<stop stop-color="#DEA6A9"/>
<stop offset="1" stop-color="#DEA6A9"/>
</linearGradient>
<linearGradient id="paint3_linear_1157_8803" x1="41.525" y1="22.812" x2="41.676" y2="23.0844" gradientUnits="userSpaceOnUse">
<stop stop-color="#DEA6A9"/>
<stop offset="1" stop-color="#DEA6A9"/>
</linearGradient>
<linearGradient id="paint4_linear_1157_8803" x1="37.3936" y1="13.1117" x2="37.8052" y2="13.8538" gradientUnits="userSpaceOnUse">
<stop stop-color="#DEA6A9"/>
<stop offset="1" stop-color="#DEA6A9"/>
</linearGradient>
<linearGradient id="paint5_linear_1157_8803" x1="40.3776" y1="12.9451" x2="40.3809" y2="12.9513" gradientUnits="userSpaceOnUse">
<stop stop-color="#DEA6A9"/>
<stop offset="1" stop-color="#DEA6A9"/>
</linearGradient>
<linearGradient id="paint6_linear_1157_8803" x1="41.5523" y1="12.2946" x2="42.2284" y2="13.5136" gradientUnits="userSpaceOnUse">
<stop stop-color="#DEA6A9"/>
<stop offset="1" stop-color="#DEA6A9"/>
</linearGradient>
<linearGradient id="paint7_linear_1157_8803" x1="46.7533" y1="18.9934" x2="46.8919" y2="19.2433" gradientUnits="userSpaceOnUse">
<stop stop-color="#DEA6A9"/>
<stop offset="1" stop-color="#DEA6A9"/>
</linearGradient>
<linearGradient id="paint8_linear_1157_8803" x1="43.6336" y1="12.9155" x2="43.6602" y2="12.9633" gradientUnits="userSpaceOnUse">
<stop stop-color="#DEA6A9"/>
<stop offset="1" stop-color="#DEA6A9"/>
</linearGradient>
<linearGradient id="paint9_linear_1157_8803" x1="47.255" y1="17.8922" x2="47.4334" y2="18.214" gradientUnits="userSpaceOnUse">
<stop stop-color="#DEA6A9"/>
<stop offset="1" stop-color="#DEA6A9"/>
</linearGradient>
<linearGradient id="paint10_linear_1157_8803" x1="46.6533" y1="16.3384" x2="46.7197" y2="16.4586" gradientUnits="userSpaceOnUse">
<stop stop-color="#DEA6A9"/>
<stop offset="1" stop-color="#DEA6A9"/>
</linearGradient>
</defs>
</svg>
