<svg width="24" height="24" viewBox="0 0 24 24" fill="none" xmlns="http://www.w3.org/2000/svg">
<circle cx="12" cy="12" r="12" fill="#F3A2A9"/>
<path d="M15.3334 5.33334H8.66671C6.82576 5.33334 5.33337 6.82573 5.33337 8.66668V15.3333C5.33337 17.1743 6.82576 18.6667 8.66671 18.6667H15.3334C17.1743 18.6667 18.6667 17.1743 18.6667 15.3333V8.66668C18.6667 6.82573 17.1743 5.33334 15.3334 5.33334Z" stroke="black" stroke-linecap="round" stroke-linejoin="round"/>
<path d="M14.6667 11.58C14.7489 12.1348 14.6542 12.7015 14.3958 13.1993C14.1375 13.6972 13.7288 14.1009 13.2278 14.3531C12.7267 14.6053 12.159 14.6931 11.6052 14.6039C11.0514 14.5148 10.5398 14.2534 10.1432 13.8568C9.74662 13.4601 9.48516 12.9486 9.39605 12.3948C9.30694 11.841 9.39472 11.2733 9.64689 10.7722C9.89907 10.2712 10.3028 9.86248 10.8007 9.60415C11.2985 9.34582 11.8652 9.25105 12.42 9.33332C12.986 9.41724 13.5099 9.68096 13.9145 10.0855C14.319 10.4901 14.5828 11.014 14.6667 11.58Z" stroke="black" stroke-linecap="round" stroke-linejoin="round"/>
<path d="M15.6666 8.33334H15.6733" stroke="black" stroke-linecap="round" stroke-linejoin="round"/>
</svg>
