<svg width="36" height="36" viewBox="0 0 36 36" fill="none" xmlns="http://www.w3.org/2000/svg">
<path d="M31.5 15C31.5 25.5 18 34.5 18 34.5C18 34.5 4.5 25.5 4.5 15C4.5 11.4196 5.92232 7.9858 8.45406 5.45406C10.9858 2.92232 14.4196 1.5 18 1.5C21.5804 1.5 25.0142 2.92232 27.5459 5.45406C30.0777 7.9858 31.5 11.4196 31.5 15Z" stroke="#EE624C" stroke-width="3" stroke-linecap="round" stroke-linejoin="round"/>
<path d="M18 19.5C20.4853 19.5 22.5 17.4853 22.5 15C22.5 12.5147 20.4853 10.5 18 10.5C15.5147 10.5 13.5 12.5147 13.5 15C13.5 17.4853 15.5147 19.5 18 19.5Z" stroke="#EE624C" stroke-width="3" stroke-linecap="round" stroke-linejoin="round"/>
</svg>
