<svg width="52" height="15" viewBox="0 0 52 15" fill="none" xmlns="http://www.w3.org/2000/svg">
<path d="M3 0.5H49C50.3807 0.5 51.5 1.61929 51.5 3V12C51.5 13.3807 50.3807 14.5 49 14.5H3C1.61929 14.5 0.5 13.3807 0.5 12V3C0.5 1.61929 1.61929 0.5 3 0.5Z" stroke="#FAE100"/>
<path d="M7.074 6.11L7.729 6.583L6.119 8.603L7.984 10.84L7.338 11.34L5.137 8.648L7.074 6.11ZM4.837 11.212H4V4.182L4.837 4V11.212ZM25.78 6.83C25.343 6.83 25.008 6.993 24.775 7.32C24.541 7.648 24.425 8.127 24.425 8.758C24.425 9.382 24.541 9.854 24.775 10.172C25.008 10.49 25.343 10.65 25.78 10.65C26.222 10.65 26.56 10.49 26.794 10.172C27.027 9.854 27.144 9.382 27.144 8.758C27.144 8.128 27.027 7.648 26.794 7.321C26.56 6.993 26.222 6.83 25.78 6.83M25.78 6.157C26.47 6.157 27.014 6.381 27.407 6.83C27.802 7.278 27.999 7.921 27.999 8.758C27.999 9.582 27.803 10.216 27.412 10.658C27.022 11.101 26.477 11.323 25.78 11.323C25.089 11.323 24.546 11.101 24.152 10.659C23.758 10.216 23.56 9.582 23.56 8.758C23.56 7.921 23.759 7.278 24.156 6.83C24.553 6.381 25.095 6.157 25.78 6.157M20.246 10.622C20.3664 10.6214 20.4862 10.6063 20.603 10.577C20.7295 10.5461 20.8538 10.5067 20.975 10.459C21.0965 10.4111 21.2131 10.3515 21.323 10.281C21.426 10.2153 21.5231 10.1407 21.613 10.058V8.894H20.743C20.303 8.894 19.981 8.97 19.779 9.122C19.577 9.273 19.476 9.512 19.476 9.84C19.476 10.362 19.732 10.622 20.246 10.622M18.676 9.877C18.676 9.373 18.844 8.99 19.18 8.727C19.517 8.462 20.006 8.33 20.649 8.33H21.613V8.012C21.613 7.242 21.273 6.857 20.594 6.857C20.376 6.857 20.147 6.887 19.908 6.948C19.668 7.008 19.448 7.085 19.248 7.175L19.003 6.585C19.252 6.445 19.52 6.337 19.808 6.261C20.095 6.186 20.376 6.147 20.648 6.147C21.825 6.147 22.414 6.775 22.414 8.03V11.213H21.794L21.694 10.668C21.446 10.868 21.181 11.022 20.899 11.132C20.6431 11.2357 20.3701 11.291 20.094 11.295C19.651 11.295 19.304 11.17 19.053 10.918C18.801 10.666 18.675 10.319 18.675 9.877M17.025 6.111L17.68 6.584L16.07 8.604L17.934 10.841L17.289 11.341L15.088 8.649L17.025 6.111ZM14.788 11.213H13.951V4.183L14.788 4.001V11.213ZM10.294 10.623C10.409 10.623 10.528 10.607 10.652 10.577C10.7778 10.546 10.9015 10.5066 11.022 10.459C11.1443 10.4114 11.2615 10.3518 11.372 10.281C11.4751 10.2155 11.5722 10.1408 11.662 10.058V8.894H10.792C10.352 8.894 10.03 8.97 9.827 9.122C9.625 9.273 9.524 9.512 9.524 9.84C9.524 10.362 9.781 10.622 10.294 10.622M8.724 9.877C8.724 9.373 8.892 8.99 9.229 8.727C9.565 8.462 10.055 8.33 10.697 8.33H11.662V8.012C11.662 7.242 11.322 6.857 10.642 6.857C10.425 6.857 10.196 6.887 9.956 6.948C9.716 7.008 9.496 7.085 9.296 7.175L9.051 6.585C9.3 6.445 9.568 6.337 9.856 6.261C10.144 6.186 10.425 6.148 10.697 6.148C11.874 6.148 12.462 6.775 12.462 8.03V11.213H11.844L11.744 10.668C11.494 10.868 11.229 11.022 10.948 11.132C10.666 11.241 10.398 11.295 10.142 11.295C9.7 11.295 9.353 11.17 9.102 10.918C8.85 10.666 8.724 10.319 8.724 9.877V9.877Z" fill="#FAE100"/>
<path d="M30.768 11H32.176L33.992 5.08H32.784L32.016 7.96C31.84 8.624 31.712 9.208 31.52 9.88H31.48C31.296 9.208 31.16 8.624 30.976 7.96L30.2 5.08H28.952L30.768 11ZM34.6811 11H35.8651V5.08H34.6811V11ZM37.3218 11H41.0418V10.008H38.5058V8.432H40.5778V7.432H38.5058V6.064H40.9538V5.08H37.3218V11ZM42.8036 11H44.2516L44.8996 8.072C44.9876 7.616 45.0756 7.152 45.1556 6.704H45.1876C45.2596 7.152 45.3396 7.616 45.4436 8.072L46.0996 11H47.5796L48.6756 5.08H47.5556L47.0756 7.968C46.9956 8.592 46.8996 9.224 46.8196 9.864H46.7796C46.6436 9.224 46.5316 8.584 46.4036 7.968L45.7156 5.08H44.6996L44.0196 7.968C43.8916 8.592 43.7636 9.224 43.6436 9.864H43.6116C43.5156 9.224 43.4276 8.592 43.3316 7.968L42.8676 5.08H41.6596L42.8036 11Z" fill="#FAE100"/>
</svg>
