<svg width="32" height="32" viewBox="0 0 100 100" fill="none" xmlns="http://www.w3.org/2000/svg">
<path d="M72.9883 52.3145C72.9492 45.6543 75.9668 40.6348 82.0605 36.9336C78.6523 32.0508 73.4961 29.3652 66.6992 28.8477C60.2637 28.3398 53.2227 32.5977 50.6445 32.5977C47.9199 32.5977 41.6895 29.0234 36.7871 29.0234C26.6699 29.1797 15.918 37.0898 15.918 53.1836C15.918 57.9395 16.7871 62.8516 18.5254 67.9102C20.8496 74.5703 29.2285 90.8887 37.9687 90.625C42.5391 90.5176 45.7715 87.3828 51.7187 87.3828C57.4902 87.3828 60.4785 90.625 65.5762 90.625C74.3945 90.498 81.9727 75.6641 84.1797 68.9844C72.3535 63.4082 72.9883 52.6563 72.9883 52.3145V52.3145ZM62.7246 22.5293C67.6758 16.6504 67.2266 11.2988 67.0801 9.375C62.7051 9.62891 57.6465 12.3535 54.7656 15.7031C51.5918 19.2969 49.7266 23.7402 50.127 28.75C54.8535 29.1113 59.1699 26.6797 62.7246 22.5293V22.5293Z" fill="white"/>
</svg>
